{"glyphs":{"0":{"ha":1608,"x_min":0,"x_max":0,"o":"m 565 972 b 79 486 298 972 79 753 b 87 400 79 457 82 428 b 565 0 128 173 327 0 l 1043 0 b 1521 400 1281 0 1480 173 b 1529 486 1526 428 1529 457 b 1043 972 1529 753 1310 972 z m 280 306 b 240 395 263 334 249 364 b 228 486 232 424 228 455 b 256 621 228 534 238 580 b 565 824 309 740 428 824 l 1043 824 b 1242 758 1117 824 1186 799 l 1200 733 l 408 276 l 408 276 l 407 276 b 280 306 364 250 308 264 z m 1328 665 b 1352 621 1337 651 1345 637 b 1380 486 1370 580 1380 534 b 1368 395 1380 455 1376 424 b 1043 149 1328 254 1197 149 l 565 149 b 366 215 491 149 422 173 l 408 239 l 1200 696 l 1200 697 l 1200 697 b 1328 665 1245 722 1301 708 z "},"1":{"ha":608,"x_min":0,"x_max":0,"o":"m 365 972 b 298 945 340 972 319 957 l 88 824 l 57 806 l 57 774 l 104 796 b 206 824 138 812 169 824 l 365 824 l 365 0 l 514 0 l 514 972 z "},"2":{"ha":1499,"x_min":0,"x_max":0,"o":"m 345 149 l 555 28 b 658 0 588 9 620 0 l 1416 0 l 1416 149 l 464 149 b 361 176 426 149 394 157 l 239 247 l 239 370 l 1086 370 b 1361 518 1201 370 1302 429 b 1414 666 1390 561 1409 612 b 1416 741 1415 677 1416 730 l 1416 744 l 1277 824 l 1267 829 l 1068 945 b 965 972 1035 964 1003 972 l 90 972 l 90 824 l 1159 824 b 1261 796 1196 824 1229 815 l 1267 793 l 1267 699 b 1086 518 1267 600 1186 518 l 90 518 l 90 1 l 239 1 l 239 210 z "},"3":{"ha":1499,"x_min":0,"x_max":0,"o":"m 1409 238 l 1412 240 b 1414 280 1413 253 1414 267 b 1324 486 1414 361 1379 435 b 1259 531 1305 504 1283 519 b 1222 546 1248 537 1235 542 l 1391 644 l 1412 656 b 1414 692 1414 668 1414 680 b 1134 972 1414 846 1288 972 l 656 972 b 554 945 619 972 586 964 l 344 824 l 238 762 l 238 971 l 89 971 l 89 479 l 238 479 l 238 725 l 360 796 b 463 824 392 815 425 824 l 1134 824 b 1266 692 1206 824 1266 764 b 1134 560 1266 620 1206 560 l 777 560 b 674 533 739 560 707 552 l 465 412 l 434 394 l 434 362 l 481 384 b 583 412 515 401 546 412 l 1134 412 b 1149 412 1139 412 1144 412 l 1148 411 b 1266 280 1214 404 1266 348 b 1134 149 1266 208 1206 149 l 89 149 l 89 0 l 940 0 b 1043 28 978 0 1011 9 l 1253 149 z "},"4":{"ha":1503,"x_min":0,"x_max":0,"o":"m 1259 264 l 1259 0 l 1407 0 l 1407 971 l 1259 971 l 1259 823 b 1156 536 1256 707 1274 604 l 988 439 b 885 411 955 420 923 411 l 411 411 b 231 592 312 411 231 493 l 231 971 l 82 971 l 82 592 b 136 411 82 525 102 463 b 411 262 195 322 297 262 l 692 262 b 794 290 729 262 762 271 l 1004 411 l 1259 558 l 1259 529 b 1258 429 1258 494 1259 461 l 1258 264 z "},"5":{"ha":1499,"x_min":0,"x_max":0,"o":"m 239 762 l 239 971 l 90 971 l 90 454 l 1086 454 b 1267 273 1186 454 1267 372 l 1267 180 l 1261 176 b 1159 149 1229 157 1196 149 l 90 149 l 90 0 l 965 0 b 1068 28 1003 0 1035 9 l 1267 143 l 1277 149 l 1416 229 l 1416 231 b 1414 307 1416 242 1415 296 b 1361 454 1409 361 1390 411 b 1086 603 1302 543 1201 603 l 239 603 l 239 725 l 361 796 b 464 824 394 815 426 824 l 1416 824 l 1416 972 l 658 972 b 555 945 620 972 588 964 l 345 824 z "},"6":{"ha":1496,"x_min":0,"x_max":0,"o":"m 1413 824 l 1413 972 l 574 972 b 102 603 346 972 154 814 b 87 486 92 565 87 526 l 87 0 l 962 0 b 1065 28 1000 0 1032 9 l 1264 143 l 1275 149 l 1413 229 l 1413 231 b 1411 307 1413 242 1412 296 b 1359 454 1406 361 1387 411 b 1084 603 1300 543 1198 603 l 602 603 b 499 575 564 603 532 594 l 247 430 l 236 423 l 236 486 b 257 603 236 527 244 566 b 265 621 259 609 262 615 b 574 824 317 740 436 824 z m 236 387 l 249 394 l 305 427 b 408 454 338 445 370 454 l 1084 454 b 1264 273 1183 454 1264 372 l 1264 180 l 1259 176 b 1156 149 1226 157 1194 149 l 236 149 l 236 387 z "},"7":{"ha":1451,"x_min":0,"x_max":0,"o":"m 795 412 l 894 412 b 930 421 907 412 918 415 l 980 451 l 1008 467 l 1170 560 l 1231 596 l 1235 598 l 1347 663 b 1384 725 1370 676 1384 699 l 1384 832 l 1189 945 b 1086 972 1156 964 1124 972 l 85 972 l 85 824 l 1235 824 b 1235 752 1235 823 1235 753 b 1132 575 1235 677 1197 613 l 1123 570 b 1087 560 1112 563 1100 560 l 414 560 b 139 412 300 560 198 501 b 86 264 111 369 92 318 b 85 231 85 253 85 242 l 85 0 l 233 0 l 233 231 b 414 412 233 330 315 412 l 795 412 z "},"8":{"ha":1493,"x_min":0,"x_max":0,"o":"m 1403 238 l 1406 240 b 1409 280 1408 253 1409 267 b 1318 486 1409 361 1374 435 b 1254 531 1299 504 1277 519 b 1217 546 1242 537 1230 542 l 1386 644 l 1407 656 b 1409 692 1408 668 1409 680 b 1129 972 1409 846 1283 972 l 557 972 b 455 945 520 972 487 964 l 245 824 l 89 734 l 86 732 b 83 692 84 719 83 706 b 174 486 83 611 118 537 b 238 441 193 468 215 453 b 275 426 250 436 263 430 l 106 328 l 86 317 b 83 280 84 305 83 293 b 364 0 83 126 209 0 l 935 0 b 1038 28 973 0 1005 9 l 1247 149 z m 1129 824 b 1260 692 1201 824 1260 764 b 1129 560 1260 620 1201 560 l 771 560 b 746 559 763 560 754 560 l 746 560 l 364 560 b 349 560 359 560 354 560 l 350 561 b 232 692 284 568 232 625 b 364 824 232 764 291 824 z m 746 412 l 1129 412 b 1143 412 1133 412 1138 412 l 1143 411 b 1260 280 1208 404 1260 348 b 1129 149 1260 208 1201 149 l 364 149 b 232 280 291 149 232 208 b 364 412 232 352 291 412 l 721 412 b 746 413 730 412 738 412 z "},"9":{"ha":1493,"x_min":0,"x_max":0,"o":"m 1127 972 l 533 972 b 430 945 495 972 463 964 l 231 829 l 220 824 l 82 744 l 82 741 b 84 666 82 730 83 677 b 136 518 89 612 108 561 b 411 370 195 429 297 370 l 893 370 b 996 397 931 370 963 378 l 1248 543 l 1259 549 l 1259 486 b 1238 370 1259 445 1251 406 b 1230 351 1236 363 1233 357 b 921 149 1178 232 1059 149 l 82 149 l 82 0 l 921 0 b 1393 370 1149 0 1341 158 b 1408 486 1403 407 1408 446 l 1408 692 b 1127 972 1408 846 1281 972 z m 940 824 l 1127 824 b 1259 692 1199 824 1259 764 l 1259 586 l 1246 578 l 1190 546 b 1087 518 1157 527 1125 518 l 411 518 b 231 699 312 518 231 600 l 231 793 l 236 796 b 339 824 269 815 301 824 l 940 824 z "},"\u0000":{"ha":0,"x_min":0,"x_max":0,"o":""},"\n":{"ha":0,"x_min":0,"x_max":0,"o":""},"\r":{"ha":0,"x_min":0,"x_max":0,"o":""}," ":{"ha":739,"x_min":0,"x_max":0,"o":""},"!":{"ha":333,"x_min":0,"x_max":0,"o":"m 92 972 l 92 243 l 240 243 l 240 972 z m 92 149 l 92 0 l 240 0 l 240 149 z "},"\"":{"ha":485,"x_min":0,"x_max":0,"o":"m 94 1285 l 94 1158 l 127 1000 l 189 1000 l 221 1158 l 221 1285 z m 263 1285 l 263 1158 l 295 1000 l 358 1000 l 390 1158 l 390 1285 z "},"#":{"ha":1872,"x_min":0,"x_max":0,"o":"m 311 972 l 292 717 l 113 717 l 102 569 l 281 569 l 269 403 l 90 403 l 79 255 l 258 255 l 239 0 l 388 0 l 399 149 l 407 255 l 1431 255 l 1424 149 l 1413 0 l 1561 0 l 1580 255 l 1759 255 l 1770 403 l 1591 403 l 1591 412 l 1602 560 l 1603 569 l 1782 569 l 1793 717 l 1614 717 l 1633 972 l 1484 972 l 1465 717 l 440 717 l 459 972 z m 417 403 l 429 560 l 430 569 l 1454 569 l 1454 560 l 1443 412 l 1442 403 l 417 403 z "},"$":{"ha":1493,"x_min":0,"x_max":0,"o":"m 673 824 l 673 603 l 599 603 b 496 575 561 603 529 594 l 239 426 b 233 486 235 446 233 466 b 254 603 233 527 241 566 b 262 621 257 609 259 615 b 571 824 314 740 433 824 z m 1410 824 l 1410 972 l 822 972 l 822 1150 l 673 1150 l 673 972 l 571 972 b 99 603 344 972 151 814 b 85 486 90 565 85 526 b 92 400 85 457 87 428 b 106 343 96 381 101 362 b 115 318 109 335 112 326 l 246 394 l 303 427 b 405 454 335 445 368 454 l 673 454 l 673 149 l 85 149 l 85 0 l 673 0 l 673 -178 l 822 -178 l 822 0 l 959 0 b 1062 28 997 0 1029 9 l 1262 143 l 1272 149 l 1410 229 l 1410 231 b 1409 307 1410 242 1410 296 b 1356 454 1403 361 1384 411 b 1081 603 1297 543 1195 603 l 822 603 l 822 824 z m 1081 454 b 1262 273 1180 454 1262 372 l 1262 180 l 1256 176 b 1153 149 1223 157 1191 149 l 822 149 l 822 454 z "},"%":{"ha":1339,"x_min":0,"x_max":0,"o":"m 277 287 l 273 285 l 161 220 b 125 157 138 206 125 184 l 125 1 l 273 1 b 273 130 273 1 273 130 b 376 307 274 205 310 272 b 1000 650 545 397 832 559 l 1061 686 l 1064 688 l 1177 753 b 1213 815 1200 766 1213 789 l 1213 972 l 1064 972 b 1064 842 1064 972 1064 843 b 962 665 1064 767 1028 701 b 338 322 794 575 504 416 z m 866 472 b 630 236 736 472 630 366 b 866 0 630 106 736 0 l 1021 0 b 1257 236 1151 0 1257 106 b 1021 472 1257 366 1151 472 z m 1021 325 b 1109 236 1070 325 1109 285 b 1021 148 1109 188 1070 148 l 866 148 b 778 236 817 148 778 188 b 866 325 778 285 817 325 z m 472 825 b 560 736 520 825 560 785 b 472 648 560 687 520 648 l 317 648 b 228 736 268 648 228 687 b 317 825 228 785 268 825 z m 472 500 b 708 736 601 500 708 606 b 472 972 708 866 601 972 l 317 972 b 81 736 187 972 81 866 b 317 500 81 606 187 500 z "},"&":{"ha":1560,"x_min":0,"x_max":0,"o":"m 89 734 l 86 732 b 83 692 84 719 83 706 b 174 486 83 611 118 537 b 238 442 193 468 215 453 b 275 426 250 436 263 430 l 106 329 l 86 317 b 83 280 84 305 83 293 b 364 0 83 126 209 0 l 788 0 b 891 28 826 0 858 9 l 1100 149 l 1260 241 l 1260 1 l 1409 1 l 1409 412 l 1479 412 l 1479 560 l 364 560 b 349 560 359 560 354 560 l 350 561 b 232 692 284 568 232 625 b 364 824 232 764 291 824 l 1409 824 l 1409 972 l 557 972 b 455 945 520 972 487 964 l 245 824 z m 1260 278 l 1084 176 b 982 149 1052 157 1019 149 l 364 149 b 232 280 291 149 232 208 b 364 412 232 352 291 412 l 1260 412 z "},"'":{"ha":317,"x_min":0,"x_max":0,"o":"m 221 1285 l 94 1285 l 94 1158 l 127 1000 l 189 1000 l 221 1158 z "},"(":{"ha":346,"x_min":0,"x_max":0,"o":"m 482 1139 l 482 1286 b 102 973 294 1286 136 1151 b 94 899 97 949 94 924 l 94 74 b 102 1 94 49 97 24 b 482 -313 136 -178 294 -313 l 482 -165 b 254 1 376 -165 285 -95 b 242 74 246 24 242 49 l 242 899 b 254 973 242 925 246 949 b 482 1139 285 1069 376 1139 z "},")":{"ha":346,"x_min":0,"x_max":0,"o":"m 92 973 b 103 899 99 949 103 925 l 103 74 b 92 1 103 49 99 24 b -136 -165 60 -95 -30 -165 l -136 -313 b 244 1 52 -313 209 -178 b 251 74 249 24 251 49 l 251 899 b 244 973 251 924 249 949 b -136 1286 209 1151 52 1286 l -136 1139 b 92 973 -30 1139 60 1069 z "},"*":{"ha":643,"x_min":0,"x_max":0,"o":"m 396 1084 l 247 1084 l 296 876 l 141 1022 l 67 894 l 271 832 l 67 771 l 141 643 l 296 789 l 247 581 l 396 581 l 346 789 l 502 643 l 576 771 l 371 832 l 576 894 l 502 1022 l 346 876 z "},"+":{"ha":700,"x_min":0,"x_max":0,"o":"m 276 560 l 67 560 l 67 413 l 276 413 l 276 204 l 423 204 l 423 413 l 633 413 l 633 560 l 423 560 l 423 770 l 276 770 z "},",":{"ha":258,"x_min":0,"x_max":0,"o":"m 54 0 l 155 0 l 54 -73 l 54 -111 l 203 -4 l 203 149 l 54 149 z "},"-":{"ha":675,"x_min":0,"x_max":0,"o":"m 54 560 l 54 413 l 620 413 l 620 560 z "},".":{"ha":258,"x_min":0,"x_max":0,"o":"m 54 0 l 203 0 l 203 149 l 54 149 z "},"/":{"ha":567,"x_min":0,"x_max":0,"o":"m 63 0 l 211 0 l 503 973 l 355 973 z "},":":{"ha":283,"x_min":0,"x_max":0,"o":"m 67 712 l 67 563 l 215 563 l 215 712 z m 67 410 l 67 262 l 215 262 l 215 410 z "},";":{"ha":294,"x_min":0,"x_max":0,"o":"m 72 712 l 72 563 l 221 563 l 221 712 z m 221 410 l 72 410 l 72 262 l 173 262 l 72 189 l 72 150 l 221 258 z "},"<":{"ha":790,"x_min":0,"x_max":0,"o":"m 61 526 l 61 488 l 296 352 l 506 231 b 609 204 539 212 571 204 l 715 204 l 715 352 l 415 352 b 312 380 377 352 345 361 l 181 456 l 92 507 l 181 559 l 312 634 b 415 662 345 653 377 662 l 715 662 l 715 811 l 609 811 b 506 783 571 811 539 802 l 296 662 z "},"=":{"ha":700,"x_min":0,"x_max":0,"o":"m 633 664 l 67 664 l 67 517 l 633 517 z m 633 443 l 67 443 l 67 295 l 633 295 z "},">":{"ha":790,"x_min":0,"x_max":0,"o":"m 728 526 l 493 662 l 284 783 b 181 811 251 802 219 811 l 75 811 l 75 662 l 375 662 b 477 634 412 662 445 653 l 609 559 l 698 507 l 609 456 l 477 380 b 375 352 445 361 412 352 l 75 352 l 75 204 l 181 204 b 284 231 219 204 251 212 l 493 352 l 728 488 l 728 526 z "},"?":{"ha":1449,"x_min":0,"x_max":0,"o":"m 490 149 l 490 0 l 639 0 l 639 149 z m 1123 824 b 1231 793 1165 824 1195 814 l 1231 746 b 1051 565 1231 647 1150 565 b 812 565 1011 565 812 565 b 491 243 637 561 495 420 l 639 243 b 820 417 643 339 723 417 l 1058 417 l 1058 417 b 1380 744 1237 421 1380 570 l 1032 945 b 929 972 999 964 967 972 l 496 972 b 387 972 436 972 387 972 b 65 650 211 968 69 827 l 213 650 b 394 824 217 746 297 824 l 545 824 z "},"@":{"ha":2271,"x_min":0,"x_max":0,"o":"m 2020 0 b 1792 -165 1989 -95 1898 -165 l 482 -165 b 254 0 376 -165 285 -95 b 242 74 246 24 242 49 l 242 899 b 254 973 242 925 246 949 b 482 1139 285 1069 376 1139 l 1792 1139 b 2020 973 1898 1139 1989 1069 b 2032 899 2028 949 2032 925 l 2032 654 l 2031 654 l 2031 390 b 1915 274 2031 326 1979 274 b 1800 390 1852 274 1800 326 l 1800 816 l 804 816 b 474 487 622 816 474 668 b 804 157 474 305 622 157 l 1084 157 b 1186 185 1121 157 1154 166 l 1396 306 l 1651 453 l 1651 390 b 1790 157 1651 290 1708 202 b 1915 126 1828 137 1870 126 b 2032 153 1957 126 1997 135 b 2180 390 2119 196 2180 286 l 2180 899 b 2172 973 2180 924 2177 949 b 1792 1286 2138 1151 1980 1286 l 482 1286 b 102 973 294 1286 136 1151 b 94 899 97 949 94 924 l 94 74 b 102 0 94 49 97 24 b 482 -313 136 -178 294 -313 l 1792 -313 b 2172 0 1980 -313 2138 -178 l 2020 0 z m 1548 430 l 1380 333 b 1278 306 1348 314 1315 306 l 804 306 b 623 487 704 306 623 387 b 804 667 623 586 704 667 l 1651 667 l 1651 608 b 1548 430 1651 533 1614 468 z "},"A":{"ha":1503,"x_min":0,"x_max":0,"o":"m 1117 527 l 1259 609 l 1259 0 l 1407 0 l 1407 972 l 411 972 b 82 643 230 972 82 824 l 82 0 l 231 0 l 231 256 l 591 256 b 694 283 629 256 661 264 l 904 404 l 1085 509 l 1088 511 z m 231 643 b 411 824 231 742 312 824 l 1259 824 l 1259 765 b 1156 587 1259 689 1221 624 l 1117 564 l 888 432 b 785 404 855 413 823 404 l 231 404 z "},"B":{"ha":1476,"x_min":0,"x_max":0,"o":"m 1413 238 l 1416 240 b 1419 280 1418 253 1419 267 b 1328 486 1419 361 1384 435 b 1264 531 1309 504 1287 519 b 1227 546 1252 537 1239 542 l 1396 644 l 1416 656 b 1419 692 1418 668 1419 680 b 1138 972 1419 846 1293 972 l 93 972 l 93 0 l 945 0 b 1047 28 982 0 1015 9 l 1257 149 z m 1270 280 b 1138 149 1270 208 1210 149 l 245 149 b 344 287 256 207 291 256 l 513 384 b 615 412 545 403 578 412 l 1138 412 b 1153 412 1143 412 1148 412 l 1152 411 b 1270 280 1218 404 1270 348 z m 706 533 l 497 412 l 242 265 l 242 824 l 1138 824 b 1270 692 1210 824 1270 764 b 1138 560 1270 620 1210 560 l 809 560 b 706 533 771 560 739 552 z "},"C":{"ha":1406,"x_min":0,"x_max":0,"o":"m 1371 972 l 532 972 b 46 486 265 972 46 753 b 54 400 46 457 48 428 b 532 0 94 173 294 0 l 921 0 b 1023 28 958 0 991 9 l 1233 149 l 1371 229 l 1371 265 l 1223 180 l 1217 176 b 1114 149 1184 157 1152 149 l 532 149 b 207 395 378 149 247 254 b 194 486 199 424 194 455 b 223 621 194 534 205 580 b 532 824 275 740 395 824 l 1371 824 z "},"D":{"ha":1488,"x_min":0,"x_max":0,"o":"m 243 149 l 243 824 b 581 824 244 824 580 824 l 1091 824 b 1271 643 1190 824 1271 742 l 1271 179 l 1266 176 b 1163 149 1233 157 1201 149 z m 969 0 b 1072 28 1007 0 1039 9 l 1271 143 l 1282 149 l 1420 229 l 1420 643 b 1366 824 1420 709 1400 772 b 1091 972 1307 913 1205 972 l 94 972 l 94 0 z "},"E":{"ha":1433,"x_min":0,"x_max":0,"o":"m 1371 972 l 532 972 b 46 486 265 972 46 753 b 54 400 46 457 48 428 b 532 0 94 173 294 0 l 921 0 b 1023 28 958 0 991 9 l 1233 149 l 1371 229 l 1371 265 l 1223 180 l 1217 176 b 1114 149 1184 157 1152 149 l 532 149 b 334 213 458 149 390 173 b 311 264 318 225 310 243 b 340 312 312 284 322 302 l 341 312 l 465 384 b 568 412 498 403 530 412 l 1371 412 l 1371 560 l 762 560 b 659 533 724 560 692 552 l 449 412 l 252 298 b 207 395 232 327 217 360 b 194 486 199 424 194 455 b 223 621 194 534 205 580 b 532 824 275 740 395 824 l 1371 824 z "},"F":{"ha":1439,"x_min":0,"x_max":0,"o":"m 247 621 b 556 824 299 740 418 824 l 1395 824 l 1395 972 l 556 972 b 69 486 288 972 69 753 l 69 0 l 222 0 l 222 149 b 321 287 232 207 267 256 l 489 384 b 592 412 522 403 554 412 l 1395 412 l 1395 560 l 785 560 b 683 533 748 560 715 552 l 473 412 l 218 265 l 218 486 b 247 621 218 534 228 580 z "},"G":{"ha":1453,"x_min":0,"x_max":0,"o":"m 1371 972 l 532 972 b 46 486 265 972 46 753 b 54 400 46 457 48 428 b 532 0 94 173 294 0 l 921 0 b 1023 28 958 0 991 9 l 1223 143 l 1223 0 l 1371 0 l 1371 560 l 830 560 b 727 533 792 560 760 552 l 518 412 l 407 348 l 407 311 l 534 384 b 636 412 566 403 599 412 l 1223 412 l 1223 179 l 1217 176 b 1114 149 1184 157 1152 149 l 532 149 b 207 395 378 149 247 253 b 194 486 199 424 194 455 b 223 621 194 534 205 580 b 532 824 275 740 395 824 l 1371 824 z "},"H":{"ha":1511,"x_min":0,"x_max":0,"o":"m 94 972 l 94 0 l 243 0 l 243 149 b 342 287 254 207 289 256 l 510 384 b 613 412 543 403 575 412 l 1268 412 l 1268 0 l 1416 0 l 1416 972 l 1268 972 l 1268 560 l 807 560 b 704 533 769 560 737 552 l 494 412 l 243 267 b 243 972 243 506 243 732 z "},"I":{"ha":336,"x_min":0,"x_max":0,"o":"m 242 972 l 93 972 l 93 0 l 242 0 z "},"J":{"ha":1439,"x_min":0,"x_max":0,"o":"m 456 972 b 354 945 419 972 386 964 l 144 824 l 33 760 l 33 723 l 160 796 b 261 824 192 815 224 823 l 1210 824 l 1210 179 l 1204 176 b 1102 149 1172 157 1139 149 l 33 149 l 33 0 l 908 0 b 1011 28 946 0 978 9 l 1210 143 l 1221 149 l 1359 229 l 1359 972 z "},"K":{"ha":1483,"x_min":0,"x_max":0,"o":"m 298 590 l 243 559 l 243 972 l 94 972 l 94 0 l 243 0 b 346 287 246 116 228 219 l 514 384 b 617 412 547 403 579 412 l 1091 412 b 1271 231 1190 412 1271 330 l 1271 0 l 1420 0 l 1420 231 b 1366 412 1420 298 1400 360 b 1091 560 1307 501 1205 560 l 810 560 b 708 533 773 560 740 552 l 498 412 l 243 265 l 243 294 b 346 581 246 410 228 513 l 487 663 l 718 796 b 821 824 751 815 783 824 l 1420 824 l 1420 972 l 1015 972 b 912 945 977 972 944 964 l 702 824 z "},"L":{"ha":1442,"x_min":0,"x_max":0,"o":"m 243 149 l 243 972 l 94 972 l 94 0 l 1009 0 b 1112 28 1047 0 1079 9 l 1321 149 l 1432 212 l 1432 249 l 1305 176 b 1203 149 1273 157 1240 149 z "},"M":{"ha":2135,"x_min":0,"x_max":0,"o":"m 242 676 l 242 972 l 93 972 l 93 0 l 242 0 l 242 521 b 344 699 242 596 279 661 l 513 796 b 615 824 545 815 578 824 l 818 824 b 998 643 917 824 998 742 l 998 0 l 1147 0 l 1147 521 b 1250 699 1147 597 1184 661 l 1418 796 b 1521 824 1451 815 1483 824 l 1723 824 b 1904 643 1822 824 1904 742 l 1904 0 l 2052 0 l 2052 643 b 1723 972 2052 824 1904 972 b 1612 945 1680 972 1650 967 l 1147 676 l 1145 676 b 818 972 1128 842 987 972 b 706 945 775 972 744 967 l 497 824 z "},"N":{"ha":1503,"x_min":0,"x_max":0,"o":"m 243 676 l 243 972 l 94 972 l 94 0 l 243 0 l 243 521 b 346 699 243 597 280 661 l 514 796 b 617 824 547 815 579 824 l 1091 824 b 1271 643 1190 824 1271 742 l 1271 0 l 1420 0 l 1420 643 b 1091 972 1420 824 1272 972 l 810 972 b 708 945 773 972 740 964 l 498 824 z "},"O":{"ha":1542,"x_min":0,"x_max":0,"o":"m 532 972 b 46 486 265 972 46 753 b 54 400 46 457 48 428 b 532 0 94 173 294 0 l 1010 0 b 1488 400 1247 0 1447 173 b 1496 486 1493 428 1496 457 b 1010 972 1496 753 1277 972 z m 532 149 b 207 395 378 149 247 254 b 194 486 199 424 194 455 b 223 621 194 534 205 580 b 532 824 275 740 395 824 l 1009 824 b 1318 621 1147 824 1266 740 b 1347 486 1337 580 1347 534 b 1334 395 1347 455 1343 424 b 1009 149 1294 254 1163 149 z "},"P":{"ha":1456,"x_min":0,"x_max":0,"o":"m 243 609 l 243 824 l 1091 824 b 1271 643 1190 824 1271 742 b 1091 462 1271 544 1190 462 l 810 462 b 708 435 773 462 740 453 l 498 313 l 243 166 l 243 609 z m 243 11 b 346 189 243 86 280 151 l 514 286 b 617 313 547 305 579 313 l 1091 313 b 1420 643 1272 313 1420 462 b 1091 972 1420 824 1272 972 l 94 972 l 94 0 l 243 0 z "},"Q":{"ha":1542,"x_min":0,"x_max":0,"o":"m 771 972 l 532 972 b 46 486 265 972 46 753 b 54 400 46 457 48 428 b 532 0 94 173 294 0 l 697 0 l 522 -101 l 364 -193 l 222 -274 l 238 -302 b 339 -274 270 -283 302 -274 l 903 -274 l 904 -274 b 993 -247 936 -272 964 -263 l 1202 -126 l 1313 -62 l 1313 -25 l 1186 -98 b 1084 -126 1154 -117 1121 -126 l 543 -126 l 761 0 l 1009 0 b 1488 400 1247 0 1447 173 b 1495 486 1493 428 1495 457 b 1009 972 1495 753 1277 972 l 771 972 z m 532 149 b 207 395 378 149 247 254 b 194 486 199 424 194 455 b 223 621 194 534 205 580 b 532 824 275 740 395 824 l 1009 824 b 1318 621 1147 824 1266 740 b 1347 486 1337 580 1347 534 b 1334 395 1347 455 1343 424 b 1010 149 1294 254 1163 149 z "},"R":{"ha":1490,"x_min":0,"x_max":0,"o":"m 1420 643 b 1091 972 1420 824 1272 972 l 94 972 l 94 0 l 243 0 l 243 11 b 247 50 243 24 244 38 b 346 189 257 109 292 158 l 514 286 b 617 313 547 305 579 313 l 1140 313 b 1154 314 1145 313 1149 314 l 1154 313 b 1271 182 1219 306 1271 249 l 1271 0 l 1420 0 l 1420 182 b 1329 388 1420 263 1385 336 b 1314 401 1324 392 1319 397 b 1265 432 1299 413 1282 424 b 1228 448 1253 438 1241 444 l 1397 545 l 1407 551 b 1419 617 1413 572 1417 595 b 1420 643 1420 626 1420 634 z m 1091 462 l 810 462 b 708 435 773 462 740 453 l 498 313 l 243 166 l 243 824 l 1091 824 b 1271 643 1190 824 1271 742 b 1269 616 1271 634 1271 625 b 1091 462 1256 530 1181 462 z "},"S":{"ha":1439,"x_min":0,"x_max":0,"o":"m 1387 824 l 1387 972 l 547 972 b 75 603 320 972 128 814 b 61 486 66 565 61 526 b 69 400 61 457 64 428 b 83 343 72 381 77 362 b 91 318 85 335 88 326 l 223 394 l 279 427 b 382 454 312 445 344 454 l 1057 454 b 1238 273 1156 454 1238 372 l 1238 180 l 1232 176 b 1130 149 1200 157 1167 149 l 61 149 l 61 0 l 936 0 b 1039 28 974 0 1006 9 l 1238 143 l 1248 149 l 1387 229 l 1387 231 b 1385 307 1387 242 1386 296 b 1332 454 1380 361 1361 411 b 1057 603 1273 543 1172 603 l 575 603 b 473 575 538 603 505 594 l 215 426 b 210 486 212 446 210 466 b 231 603 210 527 217 566 b 238 621 233 609 236 615 b 547 824 291 740 410 824 z "},"T":{"ha":1343,"x_min":0,"x_max":0,"o":"m 329 945 l 119 824 l 8 760 l 8 723 l 135 796 b 236 824 167 815 199 823 l 618 824 l 618 0 l 767 0 l 767 824 l 1333 824 l 1333 972 l 430 972 b 329 945 393 972 361 963 z "},"U":{"ha":1501,"x_min":0,"x_max":0,"o":"m 1259 296 l 1259 0 l 1407 0 l 1407 972 l 1259 972 l 1259 451 b 1156 273 1259 376 1221 311 l 988 176 b 885 149 955 157 923 149 l 411 149 b 231 329 312 149 231 230 l 231 972 l 82 972 l 82 329 b 411 0 82 148 230 0 l 692 0 b 794 28 729 0 762 9 l 1004 149 z "},"V":{"ha":1474,"x_min":0,"x_max":0,"o":"m 222 549 l 222 972 l 74 972 l 74 314 b 110 251 74 287 87 264 l 222 186 l 226 184 l 287 149 l 477 39 l 528 10 b 564 0 539 3 551 0 l 909 0 b 945 10 922 0 934 3 l 996 39 l 1024 55 l 1186 149 l 1247 184 l 1251 186 l 1363 251 b 1399 314 1386 264 1399 287 l 1399 972 l 1251 972 b 1251 341 1251 972 1251 341 b 1148 164 1250 266 1213 201 l 1139 158 b 1103 149 1127 152 1116 149 l 370 149 b 334 158 357 149 345 152 l 325 164 b 222 341 260 201 223 266 b 222 341 222 341 222 341 l 222 549 z "},"W":{"ha":2136,"x_min":0,"x_max":0,"o":"m 1893 296 l 1893 0 l 2041 0 l 2041 972 l 1893 972 l 1893 451 b 1790 273 1893 376 1855 311 l 1622 176 b 1519 149 1589 157 1557 149 l 1317 149 b 1136 329 1218 149 1136 230 l 1136 972 l 987 972 l 987 451 b 885 273 987 376 950 311 l 716 176 b 614 149 684 157 651 149 l 411 149 b 231 329 312 149 231 230 l 231 972 l 82 972 l 82 329 b 411 0 82 148 230 0 b 523 28 454 0 485 6 l 987 296 l 989 296 b 1317 0 1006 130 1147 0 b 1428 28 1360 0 1390 6 l 1638 149 z "},"X":{"ha":1479,"x_min":0,"x_max":0,"o":"m 1164 573 l 1163 573 l 1189 588 l 1250 623 l 1253 625 l 1366 690 b 1402 753 1389 704 1402 726 l 1402 972 l 1253 972 l 1253 781 b 1253 780 1253 780 1253 780 b 1151 603 1253 705 1216 640 l 1142 598 b 1105 588 1130 591 1119 588 l 373 588 b 337 598 360 588 348 591 l 328 603 b 225 780 263 640 225 705 b 225 972 225 780 225 972 l 76 972 l 76 753 b 113 690 76 726 90 704 l 225 625 l 229 623 l 290 588 l 315 573 l 315 573 b 131 438 239 551 174 502 b 76 257 96 386 76 324 l 76 0 l 225 0 l 225 257 b 406 438 225 356 307 438 l 1073 438 b 1253 257 1172 438 1253 356 l 1253 0 l 1402 0 l 1402 257 b 1348 438 1402 324 1382 386 b 1164 573 1305 502 1240 551 z "},"Y":{"ha":1374,"x_min":0,"x_max":0,"o":"m 24 753 b 60 690 24 726 37 704 l 172 625 l 176 623 l 237 588 l 427 478 l 478 449 b 514 439 489 442 501 439 l 612 439 l 612 0 l 761 0 l 761 439 l 859 439 b 895 449 872 439 884 442 l 946 478 l 974 494 l 1136 588 l 1197 623 l 1201 625 l 1313 690 b 1349 753 1336 704 1349 726 l 1349 972 l 1201 972 b 1201 780 1201 972 1201 780 b 1098 603 1200 705 1163 640 l 1089 598 b 1053 588 1077 591 1066 588 l 320 588 b 284 598 307 588 295 591 l 275 603 b 172 780 210 640 172 705 b 172 781 172 780 172 780 l 172 972 l 24 972 z "},"Z":{"ha":1413,"x_min":0,"x_max":0,"o":"m 857 412 b 892 421 870 412 881 415 l 943 451 l 971 467 l 1133 560 l 1194 596 l 1197 598 l 1310 663 b 1346 725 1333 676 1346 699 l 1346 832 l 1151 945 b 1049 972 1119 964 1086 972 l 47 972 l 47 824 l 1197 824 b 1197 752 1197 823 1197 753 b 1095 575 1197 677 1160 613 l 1086 570 b 1050 560 1074 564 1063 560 l 377 560 b 102 412 262 560 161 501 b 49 264 73 369 54 318 b 47 231 48 253 47 242 l 47 229 l 186 149 l 196 143 l 395 28 b 498 0 428 9 460 0 l 1373 0 l 1373 149 l 304 149 b 202 176 267 149 234 157 l 196 179 l 196 231 b 377 412 196 330 277 412 z "},"[":{"ha":338,"x_min":0,"x_max":0,"o":"m 242 1139 l 499 1139 l 499 1286 l 94 1286 l 94 -313 l 499 -313 l 499 -165 l 242 -165 z "},"\\":{"ha":567,"x_min":0,"x_max":0,"o":"m 211 973 l 63 973 l 355 0 l 503 0 z "},"]":{"ha":338,"x_min":0,"x_max":0,"o":"m 94 -165 l -162 -165 l -162 -313 l 242 -313 l 242 1286 l -162 1286 l -162 1139 l 94 1139 z "},"^":{"ha":535,"x_min":0,"x_max":0,"o":"m 161 1286 l 43 893 l 192 893 l 267 1144 l 342 893 l 491 893 l 373 1286 z "},"_":{"ha":710,"x_min":0,"x_max":0,"o":"m 53 0 l 656 0 l 656 126 l 53 126 z "},"`":{"ha":188,"x_min":0,"x_max":0,"o":"m -17 1084 l 132 824 l 132 1084 z "},"a":{"ha":1456,"x_min":0,"x_max":0,"o":"m 1224 296 l 1224 0 l 1373 0 l 1373 659 l 377 659 b 47 329 195 659 47 511 b 377 0 47 148 195 0 l 657 0 b 759 28 694 0 727 9 l 969 149 z m 377 149 b 196 329 277 149 196 230 b 377 510 196 429 277 510 l 1224 510 l 1224 451 b 1121 273 1224 376 1187 311 l 953 176 b 851 149 921 157 888 149 z "},"b":{"ha":1456,"x_min":0,"x_max":0,"o":"m 231 363 l 231 972 l 82 972 l 82 0 l 1078 0 b 1408 329 1259 0 1408 148 b 1078 659 1408 511 1259 659 l 798 659 b 695 631 760 659 728 650 l 485 510 z m 1078 510 b 1259 329 1177 510 1259 428 b 1078 149 1259 230 1177 149 l 231 149 l 231 208 b 333 385 231 283 268 348 l 501 483 b 604 510 534 501 566 510 z "},"c":{"ha":1418,"x_min":0,"x_max":0,"o":"m 1373 229 l 1373 265 l 1218 176 b 1116 149 1186 157 1153 149 l 377 149 b 196 329 277 149 196 230 b 377 510 196 428 277 510 l 1373 510 l 1373 659 l 377 659 b 47 329 195 659 47 511 b 377 0 47 148 195 0 l 922 0 b 1025 28 960 0 992 9 l 1234 149 z "},"d":{"ha":1456,"x_min":0,"x_max":0,"o":"m 1224 296 l 1224 0 l 1373 0 l 1373 972 l 1224 972 l 1224 659 l 377 659 b 47 329 195 659 47 511 b 377 0 47 148 195 0 l 657 0 b 759 28 695 0 727 9 l 969 149 z m 377 149 b 196 329 277 149 196 230 b 377 510 196 429 277 510 l 1224 510 l 1224 451 b 1121 273 1224 376 1187 311 l 953 176 b 851 149 921 157 888 149 z "},"e":{"ha":1417,"x_min":0,"x_max":0,"o":"m 1373 229 l 1373 265 l 1218 176 b 1116 149 1186 157 1153 149 l 377 149 b 197 313 283 149 205 222 l 947 313 b 1050 341 985 313 1017 322 l 1260 462 l 1343 510 l 1373 527 l 1373 659 l 377 659 b 47 329 195 659 47 511 b 377 0 47 148 195 0 l 922 0 b 1025 28 960 0 992 9 l 1234 149 z m 377 510 l 1279 510 l 1143 432 l 1041 373 b 939 345 1009 354 976 345 l 197 345 b 377 510 205 437 283 510 z "},"f":{"ha":1268,"x_min":0,"x_max":0,"o":"m 215 345 b 395 510 223 437 301 510 l 1240 510 l 1240 659 l 395 659 b 65 329 214 659 65 511 l 65 -313 l 214 -313 l 214 54 l 215 54 l 215 197 l 789 197 b 891 224 827 197 859 205 l 1101 345 l 1162 381 l 1162 417 l 1085 373 b 983 345 1053 354 1020 345 z "},"g":{"ha":1456,"x_min":0,"x_max":0,"o":"m 1224 -135 l 1373 -49 l 1373 659 l 377 659 b 47 329 195 659 47 511 b 377 0 47 148 195 0 l 657 0 b 759 28 695 0 727 9 l 969 149 l 1224 296 l 1224 -98 l 1156 -137 b 1053 -165 1123 -156 1091 -165 l 85 -165 l 85 -313 l 860 -313 b 962 -286 897 -313 930 -305 l 1172 -165 z m 377 149 b 196 329 277 149 196 230 b 377 510 196 429 277 510 l 1224 510 l 1224 451 b 1121 273 1224 376 1187 311 l 953 176 b 851 149 921 157 888 149 z "},"h":{"ha":1474,"x_min":0,"x_max":0,"o":"m 231 363 l 231 972 l 82 972 l 82 0 l 231 0 l 231 208 b 333 385 231 283 268 348 l 501 483 b 604 510 534 501 566 510 l 1078 510 b 1259 329 1177 510 1259 429 l 1259 0 l 1407 0 l 1407 329 b 1078 659 1407 511 1259 659 l 798 659 b 695 631 760 659 728 650 l 485 510 z "},"i":{"ha":314,"x_min":0,"x_max":0,"o":"m 82 658 l 82 0 l 231 0 l 231 658 z m 82 972 l 82 823 l 231 823 l 231 972 z "},"j":{"ha":314,"x_min":0,"x_max":0,"o":"m -442 -165 l -442 -314 l -282 -314 b -179 -286 -244 -314 -212 -305 l 30 -165 l 83 -135 l 231 -49 l 231 658 l 83 658 l 83 -98 l 14 -138 b -88 -165 -18 -157 -51 -165 z m 83 972 l 83 823 l 231 823 l 231 972 z "},"k":{"ha":1458,"x_min":0,"x_max":0,"o":"m 361 320 l 286 277 l 231 245 l 231 972 l 82 972 l 82 0 l 231 0 l 501 156 b 604 184 534 175 566 184 l 1078 184 b 1259 3 1177 184 1259 102 l 1259 0 l 1407 0 l 1407 3 b 1078 333 1407 184 1259 333 b 798 333 985 333 891 333 b 695 305 760 333 728 324 l 485 184 l 231 37 l 231 58 l 231 58 b 333 268 232 142 243 215 l 361 284 l 706 483 b 808 510 738 501 771 510 l 1407 510 l 1407 659 l 1002 659 b 899 631 964 659 932 650 l 690 510 z "},"l":{"ha":314,"x_min":0,"x_max":0,"o":"m 231 972 l 82 972 l 82 0 l 231 0 z "},"m":{"ha":2107,"x_min":0,"x_max":0,"o":"m 231 363 l 231 659 l 82 659 l 82 0 l 231 0 l 231 208 b 333 385 231 283 268 348 l 501 483 b 604 510 534 501 566 510 l 807 510 b 987 329 906 510 987 429 l 987 0 l 1136 0 l 1136 208 b 1239 385 1136 283 1173 348 l 1407 483 b 1510 510 1439 501 1472 510 l 1712 510 b 1893 329 1811 510 1893 429 l 1893 0 l 2041 0 l 2041 329 b 1712 659 2041 511 1893 659 l 1703 659 b 1601 631 1666 659 1633 650 l 1391 510 l 1136 363 l 1134 363 b 807 659 1117 529 976 659 l 798 659 b 695 631 760 659 728 650 l 485 510 z "},"n":{"ha":1474,"x_min":0,"x_max":0,"o":"m 231 363 l 231 659 l 82 659 l 82 0 l 231 0 l 231 208 b 333 385 231 283 268 348 l 501 483 b 604 510 534 501 566 510 l 1078 510 b 1259 329 1177 510 1259 429 l 1259 0 l 1407 0 l 1407 329 b 1078 659 1407 511 1259 659 l 798 659 b 695 631 760 659 728 650 l 485 510 z "},"o":{"ha":1421,"x_min":0,"x_max":0,"o":"m 377 149 b 196 329 277 149 196 230 b 377 510 196 428 277 510 l 1043 510 b 1224 329 1143 510 1224 428 b 1043 149 1224 230 1143 149 z m 377 659 b 47 329 195 659 47 511 b 377 0 47 148 195 0 l 1043 0 b 1373 329 1225 0 1373 148 b 1043 659 1373 511 1225 659 z "},"p":{"ha":1456,"x_min":0,"x_max":0,"o":"m 231 363 l 231 659 l 82 659 l 82 -313 l 231 -313 l 231 0 l 1078 0 b 1407 329 1259 0 1407 148 b 1078 659 1407 511 1259 659 l 798 659 b 695 631 760 659 728 650 l 485 510 z m 1078 510 b 1259 329 1177 510 1259 429 b 1078 149 1259 230 1177 149 l 231 149 l 231 208 b 333 385 231 283 268 348 l 501 483 b 604 510 534 501 566 510 z "},"q":{"ha":1456,"x_min":0,"x_max":0,"o":"m 1224 296 l 1224 -313 l 1373 -313 l 1373 659 l 377 659 b 47 329 195 659 47 511 b 377 0 47 148 195 0 l 657 0 b 759 28 695 0 727 9 l 969 149 z m 377 149 b 196 329 277 149 196 230 b 377 510 196 429 277 510 l 1224 510 l 1224 451 b 1121 273 1224 376 1187 311 l 953 176 b 851 149 921 157 888 149 z "},"r":{"ha":1379,"x_min":0,"x_max":0,"o":"m 231 363 l 231 659 l 82 659 l 82 0 l 231 0 l 231 208 b 333 385 231 283 268 348 l 501 483 b 604 510 534 501 566 510 l 1353 510 l 1353 659 l 798 659 b 695 631 760 659 728 650 l 485 510 z "},"s":{"ha":1436,"x_min":0,"x_max":0,"o":"m 1382 229 l 1382 345 l 206 345 b 386 510 214 437 293 510 l 1382 510 l 1382 659 l 386 659 b 57 329 205 659 57 511 b 57 313 57 324 57 319 l 1234 313 l 1234 179 l 1228 176 b 1125 149 1195 157 1163 149 l 57 149 l 57 0 l 932 0 b 1034 28 969 0 1002 9 l 1244 149 z "},"t":{"ha":1388,"x_min":0,"x_max":0,"o":"m 222 270 b 316 386 237 318 269 359 l 484 483 b 586 510 516 502 549 510 l 1335 510 l 1335 659 l 780 659 b 678 631 743 659 710 650 l 468 510 l 213 363 l 213 972 l 64 972 l 64 313 b 393 0 72 140 217 0 l 1335 0 l 1335 149 l 393 149 b 222 270 314 149 247 200 z "},"u":{"ha":1472,"x_min":0,"x_max":0,"o":"m 1241 296 l 1241 0 l 1389 0 l 1389 659 l 1241 659 l 1241 451 b 1138 273 1241 376 1203 311 l 970 176 b 867 149 937 157 905 149 l 393 149 b 213 329 294 149 213 230 l 213 659 l 64 659 l 64 329 b 393 0 64 148 212 0 l 673 0 b 776 28 711 0 743 9 l 986 149 z "},"v":{"ha":1438,"x_min":0,"x_max":0,"o":"m 204 659 l 56 659 l 56 314 b 92 251 56 287 69 264 l 204 186 l 208 184 l 269 149 l 459 39 l 510 10 b 546 0 521 3 532 0 l 891 0 b 927 10 904 0 916 3 l 978 39 l 1006 55 l 1168 149 l 1229 184 l 1232 186 l 1345 251 b 1381 314 1368 264 1381 287 l 1381 659 l 1232 659 b 1232 341 1232 659 1232 341 b 1130 164 1232 266 1195 201 l 1121 158 b 1085 149 1109 152 1098 149 l 352 149 b 316 158 339 149 327 152 l 307 164 b 204 341 242 201 204 266 b 204 341 204 341 204 341 z "},"w":{"ha":2106,"x_min":0,"x_max":0,"o":"m 1875 296 l 1875 0 l 2023 0 l 2023 659 l 1875 659 l 1875 451 b 1772 273 1875 376 1837 311 l 1604 176 b 1501 149 1571 157 1539 149 l 1299 149 b 1118 329 1200 149 1118 230 l 1118 659 l 969 659 l 969 451 b 867 273 969 376 932 311 l 698 176 b 596 149 666 157 633 149 l 393 149 b 213 329 294 149 213 230 l 213 659 l 64 659 l 64 329 b 393 0 64 148 212 0 l 402 0 b 505 28 440 0 472 9 l 714 149 l 969 296 l 971 296 b 1299 0 988 130 1129 0 l 1307 0 b 1410 28 1345 0 1377 9 l 1620 149 z "},"x":{"ha":1438,"x_min":0,"x_max":0,"o":"m 1143 363 l 1143 363 l 1168 377 l 1229 413 l 1232 415 l 1345 480 b 1381 542 1368 493 1381 516 l 1381 659 l 1232 659 l 1232 570 b 1232 569 1232 570 1232 570 b 1130 392 1232 494 1195 430 l 1121 387 b 1085 377 1109 380 1098 377 l 352 377 b 316 387 339 377 327 380 l 307 392 b 204 569 242 430 204 494 b 204 659 204 570 204 659 l 56 659 l 56 542 b 92 480 56 516 69 493 l 204 415 l 208 413 l 269 377 l 294 363 l 294 363 b 110 227 218 341 153 292 b 56 46 76 175 56 113 l 56 0 l 204 0 l 204 46 b 385 227 204 145 286 227 l 1052 227 b 1232 46 1151 227 1232 145 l 1232 0 l 1381 0 l 1381 46 b 1327 227 1381 113 1361 175 b 1143 363 1284 292 1219 341 z "},"y":{"ha":1472,"x_min":0,"x_max":0,"o":"m 1241 -135 l 1389 -49 l 1389 659 l 1241 659 l 1241 451 b 1138 273 1241 376 1203 311 l 970 176 b 867 149 937 157 905 149 l 393 149 b 213 329 294 149 213 230 l 213 659 l 64 659 l 64 329 b 393 0 64 148 212 0 l 673 0 b 776 28 711 0 743 9 l 986 149 l 1241 296 l 1241 -98 l 1173 -137 b 1070 -165 1140 -156 1108 -165 l 102 -165 l 102 -313 l 876 -313 b 979 -286 914 -313 946 -305 l 1189 -165 z "},"z":{"ha":1436,"x_min":0,"x_max":0,"o":"m 1243 510 l 1033 631 b 930 659 1000 650 968 659 l 56 659 l 56 510 l 1124 510 b 1227 483 1162 510 1194 501 l 1232 479 l 1232 345 l 56 345 b 56 329 56 340 56 335 b 385 0 56 148 204 0 l 1381 0 l 1381 149 l 385 149 b 205 313 291 149 213 222 l 1381 313 l 1381 430 z "},"{":{"ha":463,"x_min":0,"x_max":0,"o":"m 221 973 b 214 899 216 949 214 924 l 214 611 l 67 526 l 67 488 l 214 403 l 214 74 b 221 0 214 49 216 24 b 601 -313 255 -178 413 -313 l 601 -165 b 373 0 495 -165 404 -95 b 361 74 365 24 361 49 l 361 361 b 318 380 347 365 332 371 l 214 440 l 186 456 l 97 507 l 186 559 l 214 574 l 318 634 b 361 654 332 643 347 649 l 361 899 b 373 973 361 925 365 949 b 601 1139 404 1069 495 1139 l 601 1286 b 221 973 413 1286 255 1151 z "},"|":{"ha":338,"x_min":0,"x_max":0,"o":"m 242 1286 l 94 1286 l 94 -313 l 242 -313 z "},"}":{"ha":463,"x_min":0,"x_max":0,"o":"m -139 1286 l -139 1139 b 89 973 -33 1139 58 1069 b 101 899 97 949 101 925 l 101 654 b 144 634 115 649 130 643 l 248 574 l 276 559 l 365 507 l 276 456 l 248 440 l 144 380 b 101 361 130 371 115 365 l 101 74 b 89 0 101 49 97 24 b -139 -165 58 -95 -33 -165 l -139 -313 b 241 0 49 -313 207 -178 b 248 74 246 24 248 49 l 248 403 l 395 488 l 395 526 l 248 611 l 248 899 b 241 973 248 924 246 949 b -139 1286 207 1151 49 1286 z "},"~":{"ha":801,"x_min":0,"x_max":0,"o":"m 380 584 l 377 585 b 65 594 278 642 161 642 l 65 404 b 303 456 118 479 222 503 l 305 455 l 421 389 l 423 387 b 735 378 522 330 639 331 l 735 568 b 497 516 682 493 578 469 l 495 517 z "}," ":{"ha":739,"x_min":0,"x_max":0,"o":""},"¡":{"ha":311,"x_min":0,"x_max":0,"o":"m 229 -312 l 229 417 l 81 417 l 81 -312 z m 229 511 l 229 660 l 81 660 l 81 511 z "},"¢":{"ha":1479,"x_min":0,"x_max":0,"o":"m 1401 228 l 1401 265 l 1246 176 b 1143 148 1213 157 1181 148 l 758 148 l 866 510 l 1401 510 l 1401 658 l 911 658 l 958 815 l 809 815 l 762 658 l 404 658 b 75 329 223 658 75 510 b 404 0 75 148 223 0 l 565 0 l 517 -157 l 666 -157 l 713 0 l 950 0 b 1052 27 987 0 1020 8 l 1262 148 z m 404 148 b 224 329 305 148 224 230 b 404 510 224 428 305 510 l 718 510 l 609 148 z "},"£":{"ha":1564,"x_min":0,"x_max":0,"o":"m 832 148 l 313 148 l 384 313 l 917 313 l 917 461 l 447 461 l 449 466 b 327 559 396 477 352 512 b 306 642 314 584 306 612 b 437 816 306 724 362 794 b 487 823 453 821 470 823 l 1483 823 l 1483 972 l 487 972 b 158 642 306 972 158 824 b 212 461 158 576 178 513 l 78 461 l 78 313 l 222 313 l 152 148 l 152 0 l 1066 0 b 1169 27 1104 0 1136 8 l 1489 212 l 1489 249 l 1363 176 b 1260 148 1330 157 1298 148 l 832 148 z "},"¤":{"ha":1482,"x_min":0,"x_max":0,"o":"m 1403 329 b 1163 646 1403 480 1301 607 l 1346 829 l 1136 829 l 965 659 b 516 659 824 659 657 659 l 345 829 l 135 829 l 319 646 b 78 329 180 607 78 480 b 319 12 78 179 180 51 l 135 -171 l 345 -171 l 516 0 b 965 0 657 0 824 0 l 1136 -171 l 1346 -171 l 1163 12 b 1403 329 1301 51 1403 179 z m 407 149 b 226 329 308 149 226 230 b 407 510 226 428 308 510 l 1074 510 b 1255 329 1173 510 1255 428 b 1074 149 1255 230 1173 149 z "},"¥":{"ha":1465,"x_min":0,"x_max":0,"o":"m 69 752 b 106 690 69 726 83 703 l 218 625 l 222 623 l 283 588 l 473 478 l 523 449 b 560 439 535 442 546 439 l 658 439 l 658 395 l 312 395 l 312 246 l 658 246 l 658 198 l 312 198 l 312 49 l 658 49 l 658 0 l 807 0 l 807 49 l 1152 49 l 1152 198 l 807 198 l 807 246 l 1152 246 l 1152 395 l 807 395 l 807 439 l 905 439 b 941 449 918 439 929 442 l 991 478 l 1019 494 l 1182 588 l 1243 623 l 1246 625 l 1359 690 b 1395 752 1382 703 1395 726 l 1395 972 l 1246 972 b 1246 780 1246 972 1246 780 b 1144 602 1246 704 1209 640 l 1135 597 b 1099 588 1123 591 1112 588 l 366 588 b 330 597 353 588 341 591 l 321 602 b 218 780 256 640 218 704 b 218 780 218 780 218 780 l 218 972 l 69 972 z "},"¦":{"ha":321,"x_min":0,"x_max":0,"o":"m 86 1287 l 86 626 l 234 626 l 234 1287 z m 86 -312 l 234 -312 l 234 348 l 86 348 z "},"§":{"ha":1528,"x_min":0,"x_max":0,"o":"m 1446 1138 l 1446 1287 l 606 1287 b 152 973 399 1287 222 1156 b 134 917 145 955 139 936 b 120 801 125 880 120 841 b 128 714 120 771 123 742 b 142 658 131 695 136 676 b 150 633 144 649 147 641 l 282 708 l 338 741 b 441 768 371 760 403 768 l 666 768 l 220 511 l 82 431 l 82 429 b 84 353 82 417 83 364 b 136 206 89 299 108 249 b 200 135 154 179 175 155 b 411 57 257 86 331 57 l 893 57 b 996 85 931 57 963 66 l 1254 233 b 1259 174 1257 214 1259 194 b 1238 57 1259 133 1251 93 b 1230 39 1236 51 1233 45 b 1211 1 1225 26 1218 13 b 921 -164 1152 -97 1044 -164 l 82 -164 l 82 -312 l 921 -312 b 1376 1 1128 -312 1306 -182 b 1393 57 1383 19 1389 38 b 1408 174 1403 94 1408 134 b 1400 260 1408 203 1405 232 b 1386 316 1396 279 1392 298 b 1377 342 1383 325 1380 333 l 1246 266 l 1190 233 b 1087 206 1157 214 1125 206 l 861 206 l 1307 463 l 1446 543 l 1446 545 b 1444 621 1446 557 1445 610 b 1391 768 1438 675 1420 725 b 1279 874 1363 812 1324 848 b 1116 917 1231 901 1175 917 l 634 917 b 532 890 597 917 564 908 l 274 741 b 269 801 270 760 269 780 b 290 917 269 841 276 881 b 297 936 292 923 294 930 b 317 973 303 949 309 961 b 606 1138 376 1072 484 1138 z m 1116 768 b 1297 588 1215 768 1297 687 l 1297 494 l 798 206 l 411 206 b 231 386 312 206 231 287 l 231 480 l 730 768 z "},"¨":{"ha":551,"x_min":0,"x_max":0,"o":"m 94 1286 l 94 1137 l 243 1137 l 243 1286 z m 308 1286 l 308 1137 l 456 1137 l 456 1286 z "},"©":{"ha":1769,"x_min":0,"x_max":0,"o":"m 615 816 l 615 157 l 764 157 l 764 667 l 923 667 b 1004 586 967 667 1004 631 b 983 531 1004 565 996 546 b 923 505 968 515 946 505 l 831 505 l 899 356 l 990 157 l 1153 157 l 1046 392 b 1153 586 1110 433 1153 505 b 923 816 1153 713 1049 816 z m 884 -164 b 451 0 718 -164 566 -102 b 233 487 318 120 233 293 b 451 973 233 680 318 853 b 884 1138 566 1075 718 1138 b 1317 973 1051 1138 1202 1075 b 1535 487 1451 853 1535 680 b 1317 0 1535 293 1451 120 b 884 -164 1202 -102 1051 -164 z m 884 -313 b 1519 0 1143 -313 1373 -190 b 1684 487 1622 135 1684 304 b 1519 973 1684 669 1622 838 b 887 1286 1374 1163 1145 1285 l 882 1286 b 249 973 624 1285 395 1163 b 85 487 146 838 85 669 b 249 0 85 304 146 135 b 884 -313 396 -190 626 -313 z "},"ª":{"ha":1046,"x_min":0,"x_max":0,"o":"m 256 791 b 182 866 215 791 182 824 b 256 941 182 907 215 941 l 835 941 b 663 791 823 856 750 791 z m 230 972 b 197 969 219 972 208 971 b 65 808 122 954 65 887 b 230 643 65 717 139 643 l 663 643 b 984 964 839 643 984 788 b 663 1286 984 1141 839 1286 l 510 1286 l 510 1286 b 417 1258 477 1284 447 1276 l 207 1137 l 69 1057 l 69 1021 l 223 1110 b 326 1138 256 1129 288 1138 l 663 1138 b 836 972 755 1138 832 1064 z "},"«":{"ha":872,"x_min":0,"x_max":0,"o":"m 370 0 l 516 0 l 259 485 l 516 972 l 370 972 l 65 485 z m 658 0 l 804 0 l 547 485 l 804 972 l 658 972 l 353 485 z "},"¬":{"ha":1001,"x_min":0,"x_max":0,"o":"m 61 972 l 61 823 l 771 823 l 771 411 l 920 411 l 920 972 z "},"­":{"ha":0,"x_min":0,"x_max":0,"o":""},"®":{"ha":1769,"x_min":0,"x_max":0,"o":"m 823 306 b 642 487 724 306 642 387 b 823 667 642 586 724 667 l 1120 667 l 1120 816 l 823 816 b 493 487 642 816 493 668 b 823 157 493 305 642 157 l 1120 157 l 1120 306 z m 451 973 b 884 1138 566 1075 718 1138 b 1317 973 1051 1138 1202 1075 b 1535 487 1451 853 1535 680 b 1317 0 1535 293 1451 120 b 884 -164 1202 -102 1051 -164 b 451 0 718 -164 566 -102 b 233 487 318 120 233 293 b 451 973 233 680 318 853 z m 85 487 b 249 1 85 304 146 135 b 884 -313 396 -190 626 -313 b 1519 1 1143 -313 1373 -190 b 1684 487 1622 135 1684 304 b 1519 973 1684 669 1622 838 b 887 1286 1374 1163 1145 1285 l 882 1286 b 249 973 624 1285 395 1163 b 85 487 146 838 85 669 z "},"¯":{"ha":1049,"x_min":0,"x_max":0,"o":"m 94 1285 l 94 1137 l 953 1137 l 953 1285 z "},"°":{"ha":697,"x_min":0,"x_max":0,"o":"m 426 814 b 662 1050 556 814 662 920 b 426 1286 662 1180 556 1286 l 271 1286 b 35 1050 141 1286 35 1180 b 271 814 35 920 141 814 l 426 814 z m 514 1050 b 426 961 514 1001 474 961 l 271 961 b 182 1050 222 961 182 1001 b 271 1138 182 1098 222 1138 l 426 1138 b 514 1050 474 1138 514 1098 z "},"±":{"ha":719,"x_min":0,"x_max":0,"o":"m 286 770 l 286 560 l 76 560 l 76 413 l 286 413 l 286 204 l 433 204 l 433 413 l 642 413 l 642 560 l 433 560 l 433 770 z m 642 148 l 76 148 l 76 0 l 642 0 z "},"²":{"ha":922,"x_min":0,"x_max":0,"o":"m 196 851 l 650 851 b 823 944 720 851 784 886 b 856 1036 841 971 852 1003 b 857 1081 857 1051 857 1066 l 857 1095 l 651 1214 b 582 1232 629 1226 607 1232 l 69 1232 l 69 1105 l 691 1105 b 730 1097 705 1105 718 1103 l 730 1057 b 650 977 730 1013 694 977 l 69 977 l 69 644 l 196 644 l 196 788 l 399 671 b 502 643 432 652 464 643 l 857 643 l 857 770 l 603 770 b 205 819 481 770 310 759 l 196 825 z "},"³":{"ha":918,"x_min":0,"x_max":0,"o":"m 678 874 l 681 874 b 727 822 707 871 727 848 b 675 770 727 794 704 770 l 67 770 l 67 643 l 566 643 b 635 661 591 643 613 649 l 840 780 l 851 786 l 852 796 b 854 822 853 805 854 813 b 796 954 854 872 833 920 b 771 973 788 961 780 967 l 851 1019 l 853 1030 b 854 1053 854 1038 854 1045 b 675 1232 854 1152 774 1232 l 455 1232 l 193 1096 l 193 1232 l 67 1232 l 67 912 l 193 912 l 193 1059 l 251 1093 b 298 1105 266 1101 281 1105 l 675 1105 b 727 1053 704 1105 727 1082 b 675 1001 727 1025 704 1001 l 538 1001 b 469 983 513 1001 491 995 l 281 876 l 260 833 l 318 861 b 366 874 333 868 348 874 l 675 874 b 678 874 676 874 677 874 z "},"´":{"ha":188,"x_min":0,"x_max":0,"o":"m 54 1084 l 54 824 l 203 1084 z "},"¶":{"ha":1369,"x_min":0,"x_max":0,"o":"m 1125 -314 l 1274 -314 l 1274 972 l 404 972 b 75 643 223 972 75 824 b 404 313 75 461 223 313 b 752 313 520 313 636 313 b 899 260 815 313 848 289 l 899 -314 l 1048 -314 l 1048 823 l 1125 823 z "},"·":{"ha":258,"x_min":0,"x_max":0,"o":"m 54 411 l 203 411 l 203 560 l 54 560 z "},"¸":{"ha":139,"x_min":0,"x_max":0,"o":"m -40 -311 b 89 -61 111 -224 89 -260 l 89 107 l 47 83 l 47 82 b 57 35 57 65 57 54 b -46 -142 57 -40 19 -105 l -107 -178 l -181 -49 l -235 -198 z "},"¹":{"ha":265,"x_min":0,"x_max":0,"o":"m 69 1134 l 69 643 l 196 643 l 196 1232 l 90 1232 l 88 1232 b 42 1214 72 1227 57 1223 l -104 1130 l -104 1093 l -47 1120 b 1 1134 -31 1128 -16 1134 z "},"º":{"ha":976,"x_min":0,"x_max":0,"o":"m 593 1138 b 767 964 688 1138 767 1060 b 593 791 767 869 688 791 l 383 791 b 209 964 287 791 209 869 b 383 1138 209 1060 287 1138 z m 383 1286 b 61 964 206 1286 61 1141 b 383 643 61 788 206 643 l 593 643 b 915 964 770 643 915 788 b 593 1286 915 1141 770 1286 z "},"»":{"ha":878,"x_min":0,"x_max":0,"o":"m 519 485 l 214 972 l 68 972 l 325 485 l 68 0 l 214 0 z m 811 485 l 506 972 l 361 972 l 618 485 l 361 0 l 506 0 z "},"¼":{"ha":1803,"x_min":0,"x_max":0,"o":"m 1117 682 l 1121 684 l 1233 749 b 1269 812 1256 762 1269 785 l 1269 969 l 1121 969 b 1121 839 1121 968 1121 839 b 1018 661 1121 763 1084 697 b 394 318 850 572 560 413 l 333 283 l 330 281 l 217 216 b 181 153 194 203 181 180 l 181 -3 l 330 -3 b 330 126 330 -2 330 126 b 432 303 330 201 366 268 b 1056 647 601 393 888 555 z m 1591 595 l 1591 490 b 1591 462 1591 481 1591 471 b 1591 444 1591 456 1591 449 l 1591 359 b 1403 281 1547 333 1446 281 l 1234 281 b 1154 361 1190 281 1154 317 l 1154 595 l 1027 595 l 1027 361 b 1234 154 1027 247 1120 154 l 1244 154 b 1313 172 1269 154 1291 160 l 1590 321 l 1591 322 l 1591 322 l 1591 225 l 1591 225 l 1591 139 l 1591 9 l 1718 9 l 1718 595 z m 364 380 l 364 969 l 258 969 l 256 969 b 210 951 240 964 225 960 l 64 867 l 64 830 l 121 857 b 169 871 137 865 152 871 l 237 871 l 237 380 z "},"½":{"ha":1908,"x_min":0,"x_max":0,"o":"m 1180 185 l 1171 191 l 1171 217 l 1625 217 b 1797 310 1695 217 1759 252 b 1830 402 1816 337 1827 369 b 1832 447 1832 417 1832 432 l 1832 461 l 1625 580 b 1557 598 1604 592 1582 598 l 1044 598 l 1044 471 l 1665 471 b 1705 463 1680 471 1692 469 l 1705 423 b 1625 343 1705 379 1669 343 l 1044 343 l 1044 10 l 1171 10 l 1171 154 l 1374 37 b 1477 9 1407 18 1439 9 l 1831 9 l 1831 136 l 1577 136 b 1180 185 1456 136 1285 125 z m 361 393 l 361 982 l 255 982 l 254 981 b 207 964 237 976 222 972 l 61 879 l 61 843 l 119 870 b 167 883 134 878 149 883 l 234 883 l 234 393 z m 1146 695 l 1150 697 l 1262 762 b 1298 824 1285 775 1298 798 l 1298 981 l 1150 981 b 1150 851 1150 981 1150 852 b 1047 674 1149 776 1113 710 b 423 331 879 584 589 425 l 362 296 l 358 294 l 246 229 b 210 166 223 215 210 193 l 210 10 l 358 10 b 358 139 358 10 358 139 b 461 316 359 214 395 281 b 1085 659 630 406 917 568 z "},"¾":{"ha":2004,"x_min":0,"x_max":0,"o":"m 650 411 l 855 530 l 866 536 l 868 546 b 869 572 869 555 869 563 b 812 703 869 622 848 669 b 786 723 804 711 795 717 l 866 769 l 868 780 b 869 803 869 787 869 795 b 690 982 869 901 789 982 l 471 981 l 209 846 l 209 981 l 82 981 l 82 662 l 209 662 l 209 809 l 267 843 b 313 855 281 851 296 855 l 690 855 b 743 803 719 855 743 831 b 690 751 743 774 719 751 l 553 751 b 485 732 528 751 506 745 l 296 626 l 276 583 l 333 611 b 381 624 349 618 363 624 l 690 624 b 693 624 691 624 692 624 l 696 624 b 743 572 722 621 743 598 b 690 520 743 543 719 520 l 82 520 l 82 393 l 582 393 b 650 411 607 393 629 399 z m 1792 589 l 1792 484 b 1792 455 1792 474 1792 465 b 1792 437 1792 449 1792 443 l 1792 352 b 1604 274 1748 327 1647 274 l 1435 274 b 1355 354 1391 274 1355 311 l 1355 589 l 1228 589 l 1228 354 b 1435 148 1228 241 1321 148 l 1446 148 b 1514 166 1470 148 1493 154 l 1791 315 l 1792 315 l 1792 316 l 1792 218 l 1792 218 l 1792 133 l 1792 3 l 1919 3 l 1919 589 z m 1298 695 l 1301 697 l 1414 762 b 1450 824 1437 775 1450 798 l 1450 981 l 1301 981 b 1301 851 1301 981 1301 852 b 1199 674 1301 776 1265 710 b 575 331 1031 584 740 425 l 514 296 l 510 294 l 398 229 b 362 166 375 215 362 193 l 362 10 l 510 10 b 510 139 510 10 510 139 b 613 316 510 214 547 281 b 1236 659 781 406 1069 568 z "},"¿":{"ha":1449,"x_min":0,"x_max":0,"o":"m 958 823 l 958 972 l 809 972 l 809 823 z m 903 148 l 325 148 b 217 179 283 148 253 158 l 217 226 b 397 407 217 325 298 407 b 636 407 437 407 636 407 b 957 729 811 411 953 552 l 809 729 b 628 555 805 633 725 555 l 390 555 l 390 555 b 68 228 211 551 68 402 l 416 27 b 519 0 449 8 481 0 l 952 0 b 1061 0 1012 0 1061 0 b 1383 322 1237 4 1379 145 l 1235 322 b 1054 148 1231 226 1151 148 l 903 148 z "},"À":{"ha":1503,"x_min":0,"x_max":0,"o":"m 1259 972 l 411 972 b 82 643 230 972 82 824 l 82 0 l 231 0 l 231 256 l 591 256 b 694 283 629 256 661 264 l 904 404 l 1085 509 l 1088 511 l 1117 527 l 1259 609 l 1259 0 l 1408 0 l 1408 972 l 1259 972 z m 1259 765 b 1156 587 1259 689 1221 624 l 1117 564 l 888 432 b 785 404 855 413 823 404 l 231 404 l 231 643 b 411 824 231 742 312 824 l 1259 824 z m 984 1064 l 894 1135 l 746 1252 l 505 1252 l 804 1064 z "},"Á":{"ha":1503,"x_min":0,"x_max":0,"o":"m 984 1252 l 744 1252 l 595 1135 l 505 1064 l 686 1064 z m 1259 972 l 411 972 b 82 643 230 972 82 824 l 82 0 l 231 0 l 231 256 l 591 256 b 694 283 629 256 661 264 l 904 404 l 1085 509 l 1088 511 l 1117 527 l 1259 609 l 1259 0 l 1408 0 l 1408 972 l 1259 972 z m 1259 765 b 1156 587 1259 689 1221 624 l 1117 564 l 888 432 b 785 404 855 413 823 404 l 231 404 l 231 643 b 411 824 231 742 312 824 l 1259 824 z "},"Â":{"ha":1503,"x_min":0,"x_max":0,"o":"m 1259 972 l 411 972 b 82 643 230 972 82 824 l 82 0 l 231 0 l 231 256 l 591 256 b 694 283 629 256 661 264 l 904 404 l 1085 509 l 1088 511 l 1117 527 l 1259 609 l 1259 0 l 1407 0 l 1407 972 l 1259 972 z m 1259 765 b 1156 587 1259 689 1221 624 l 1117 564 l 888 432 b 785 404 855 413 823 404 l 231 404 l 231 643 b 411 824 231 742 312 824 l 1259 824 z m 883 1064 l 1181 1252 l 941 1252 l 792 1135 l 644 1252 l 403 1252 l 702 1064 z "},"Ã":{"ha":1503,"x_min":0,"x_max":0,"o":"m 1259 972 l 411 972 b 82 643 230 972 82 824 l 82 0 l 231 0 l 231 256 l 591 256 b 694 283 629 256 661 264 l 904 404 l 1085 509 l 1088 511 l 1117 527 l 1259 609 l 1259 0 l 1408 0 l 1408 972 l 1259 972 z m 1259 765 b 1156 587 1259 689 1221 624 l 1117 564 l 888 432 b 785 404 855 413 823 404 l 231 404 l 231 643 b 411 824 231 742 312 824 l 1259 824 z m 750 1076 l 826 1152 b 920 1152 852 1178 894 1178 l 986 1086 l 1072 1156 l 990 1239 b 739 1239 921 1308 808 1308 l 664 1163 b 569 1163 638 1138 595 1138 l 504 1229 l 417 1159 l 499 1076 b 750 1076 568 1007 681 1007 z "},"Ä":{"ha":1503,"x_min":0,"x_max":0,"o":"m 1259 972 l 411 972 b 82 643 230 972 82 824 l 82 0 l 231 0 l 231 256 l 591 256 b 694 283 629 256 661 264 l 904 404 l 1085 509 l 1088 511 l 1117 527 l 1259 609 l 1259 0 l 1408 0 l 1408 972 l 1259 972 z m 1259 765 b 1156 587 1259 689 1221 624 l 1117 564 l 888 432 b 785 404 855 413 823 404 l 231 404 l 231 643 b 411 824 231 742 312 824 l 1259 824 z m 926 1083 l 926 1232 l 777 1232 l 777 1083 z m 712 1083 l 712 1232 l 564 1232 l 564 1083 z "},"Å":{"ha":1503,"x_min":0,"x_max":0,"o":"m 1259 972 l 973 972 b 1028 1106 1007 1007 1028 1054 b 955 1256 1028 1166 999 1221 b 822 1297 917 1282 871 1297 l 667 1297 b 534 1256 618 1297 572 1282 b 461 1106 490 1221 461 1166 b 516 972 461 1054 482 1007 l 411 972 b 82 643 230 972 82 824 l 82 0 l 231 0 l 231 256 l 591 256 b 694 283 629 256 661 264 l 904 404 l 1085 509 l 1088 511 l 1117 527 l 1259 609 l 1259 0 l 1407 0 l 1407 972 l 1259 972 z m 579 1061 b 667 1149 579 1109 619 1149 l 822 1149 b 911 1061 871 1149 911 1109 b 822 972 911 1012 871 972 l 667 972 b 579 1061 619 972 579 1012 z m 1259 765 b 1156 587 1259 689 1221 624 l 1117 564 l 888 432 b 785 404 855 413 823 404 l 231 404 l 231 643 b 411 824 231 742 312 824 l 1259 824 z "},"Æ":{"ha":2644,"x_min":0,"x_max":0,"o":"m 2436 179 l 2430 176 b 2327 149 2397 157 2365 149 l 1745 149 b 1547 213 1671 149 1603 173 b 1524 264 1531 225 1523 243 b 1553 312 1525 284 1536 302 l 1554 312 l 1678 384 b 1781 412 1711 403 1743 412 l 2584 412 l 2584 560 l 1975 560 b 1872 533 1937 560 1905 552 l 1662 412 l 1465 298 b 1420 395 1445 327 1430 360 b 1408 486 1412 424 1408 455 b 1436 621 1408 534 1418 580 b 1745 824 1488 740 1608 824 l 2584 824 l 2584 972 l 1745 972 b 1408 835 1614 972 1495 920 l 1408 972 l 411 972 b 82 643 230 972 82 824 l 82 0 l 231 0 l 231 256 l 591 256 b 694 283 629 256 661 264 l 904 404 l 1085 509 l 1088 511 l 1117 527 l 1259 609 l 1259 0 l 1407 0 l 1407 137 b 1745 0 1495 52 1614 0 l 2134 0 b 2236 28 2171 0 2204 9 l 2446 149 l 2584 229 l 2584 265 z m 1259 765 b 1156 587 1259 689 1222 624 l 1117 564 l 888 432 b 785 404 855 413 823 404 l 231 404 l 231 643 b 411 824 231 742 312 824 l 1259 824 z "},"Ç":{"ha":1406,"x_min":0,"x_max":0,"o":"m 1223 179 l 1217 176 b 1114 149 1184 157 1152 149 l 532 149 b 207 395 378 149 247 254 b 194 486 199 424 194 455 b 223 621 194 534 205 580 b 532 824 275 740 395 824 l 1371 824 l 1371 972 l 532 972 b 46 486 265 972 46 753 b 54 400 46 457 48 428 b 498 1 93 184 275 17 l 498 0 l 742 0 b 812 -70 781 0 812 -32 b 742 -141 812 -109 781 -141 l 498 -141 l 498 -288 l 759 -288 b 919 -128 847 -288 919 -216 b 855 0 919 -76 894 -29 l 921 0 b 1023 27 958 0 991 9 l 1233 149 l 1371 229 l 1371 265 z "},"È":{"ha":1433,"x_min":0,"x_max":0,"o":"m 1223 180 l 1217 176 b 1114 149 1184 157 1152 149 l 532 149 b 334 213 458 149 390 173 b 311 264 318 225 310 243 b 340 312 312 284 322 302 l 341 312 l 465 384 b 568 412 498 403 530 412 l 1371 412 l 1371 560 l 762 560 b 659 533 724 560 692 552 l 449 412 l 252 298 b 207 395 232 327 217 360 b 194 486 199 424 194 455 b 223 621 194 534 205 580 b 532 824 275 740 395 824 l 1371 824 l 1371 972 l 532 972 b 46 486 265 972 46 753 b 54 400 46 457 48 428 b 532 0 94 173 294 0 l 921 0 b 1023 28 958 0 991 9 l 1233 149 l 1371 229 l 1371 265 z m 948 1064 l 858 1135 l 710 1252 l 469 1252 l 768 1064 z "},"É":{"ha":1433,"x_min":0,"x_max":0,"o":"m 1223 180 l 1217 176 b 1114 149 1184 157 1152 149 l 532 149 b 334 213 458 149 390 173 b 311 264 318 225 310 243 b 340 312 312 284 322 302 l 341 312 l 465 384 b 568 412 498 403 530 412 l 1371 412 l 1371 560 l 762 560 b 659 533 724 560 692 552 l 449 412 l 252 298 b 207 395 232 327 217 360 b 194 486 199 424 194 455 b 223 621 194 534 205 580 b 532 824 275 740 395 824 l 1371 824 l 1371 972 l 532 972 b 46 486 265 972 46 753 b 54 400 46 457 48 428 b 532 0 94 173 294 0 l 921 0 b 1023 28 958 0 991 9 l 1233 149 l 1371 229 l 1371 265 z m 948 1252 l 707 1252 l 559 1135 l 469 1064 l 649 1064 z "},"Ê":{"ha":1433,"x_min":0,"x_max":0,"o":"m 1223 180 l 1217 176 b 1114 149 1184 157 1152 149 l 532 149 b 334 213 458 149 390 173 b 311 264 318 225 310 243 b 340 312 312 284 322 302 l 341 312 l 465 384 b 568 412 498 403 530 412 l 1371 412 l 1371 560 l 762 560 b 659 533 724 560 692 552 l 449 412 l 252 298 b 207 395 232 327 217 360 b 194 486 199 424 194 455 b 223 621 194 534 205 580 b 532 824 275 740 395 824 l 1371 824 l 1371 972 l 532 972 b 46 486 265 972 46 753 b 54 400 46 457 48 428 b 532 0 94 173 294 0 l 921 0 b 1023 27 958 0 991 9 l 1233 149 l 1371 229 l 1371 265 z m 560 1064 l 709 1181 l 857 1064 l 1098 1064 l 799 1252 l 618 1252 l 320 1064 z "},"Ë":{"ha":1433,"x_min":0,"x_max":0,"o":"m 676 1083 l 676 1232 l 528 1232 l 528 1083 z m 890 1083 l 890 1232 l 741 1232 l 741 1083 z m 1223 180 l 1217 176 b 1114 149 1184 157 1152 149 l 532 149 b 334 213 458 149 390 173 b 311 264 318 225 310 243 b 340 312 312 284 322 302 l 341 312 l 465 384 b 568 412 498 403 530 412 l 1371 412 l 1371 560 l 762 560 b 659 533 724 560 692 552 l 449 412 l 252 298 b 207 395 232 327 217 360 b 194 486 199 424 194 455 b 223 621 194 534 205 580 b 532 824 275 740 395 824 l 1371 824 l 1371 972 l 532 972 b 46 486 265 972 46 753 b 53 400 46 457 48 428 b 532 0 94 173 294 0 l 921 0 b 1023 27 958 0 991 9 l 1233 149 l 1371 229 l 1371 265 z "},"Ì":{"ha":339,"x_min":0,"x_max":0,"o":"m 243 0 l 243 972 l 94 972 l 94 0 z m 408 1064 l 318 1135 l 170 1252 l -71 1252 l 228 1064 z "},"Í":{"ha":339,"x_min":0,"x_max":0,"o":"m 408 1252 l 168 1252 l 19 1135 l -71 1064 l 110 1064 z m 243 0 l 243 972 l 95 972 l 95 0 z "},"Î":{"ha":338,"x_min":0,"x_max":0,"o":"m 243 0 l 243 972 l 94 972 l 94 0 z m 258 1252 l 78 1252 l -221 1064 l 20 1064 l 168 1181 l 316 1064 l 557 1064 z "},"Ï":{"ha":338,"x_min":0,"x_max":0,"o":"m 136 1083 l 136 1232 l -12 1232 l -12 1083 z m 243 0 l 243 972 l 94 972 l 94 0 z m 349 1083 l 349 1232 l 201 1232 l 201 1083 z "},"Ð":{"ha":1524,"x_min":0,"x_max":0,"o":"m 1402 824 b 1127 972 1343 913 1241 972 l 131 972 l 131 560 l 46 560 l 46 412 l 131 412 l 131 0 l 1005 0 b 1108 28 1043 0 1075 9 l 1307 143 l 1318 149 l 1456 229 l 1456 643 b 1402 824 1456 709 1436 772 z m 1307 179 l 1302 176 b 1199 149 1269 157 1237 149 l 279 149 l 279 412 l 602 412 l 602 560 l 279 560 l 279 824 l 1127 824 b 1307 643 1226 824 1307 742 z "},"Ñ":{"ha":1503,"x_min":0,"x_max":0,"o":"m 1091 972 l 810 972 b 708 945 773 972 740 964 l 498 824 l 243 676 l 243 972 l 94 972 l 94 0 l 243 0 l 243 521 b 346 699 243 597 280 661 l 514 796 b 617 824 547 815 579 824 l 1091 824 b 1271 643 1190 824 1271 742 l 1271 0 l 1420 0 l 1420 643 b 1091 972 1420 824 1272 972 z m 763 1076 l 838 1152 b 933 1152 864 1178 907 1178 l 998 1086 l 1085 1156 l 1003 1239 b 751 1239 934 1308 821 1308 l 676 1163 b 582 1163 650 1138 608 1138 l 516 1229 l 429 1159 l 512 1076 b 763 1076 581 1007 694 1007 z "},"Ò":{"ha":1542,"x_min":0,"x_max":0,"o":"m 771 972 l 532 972 b 46 486 265 972 46 753 b 54 400 46 457 48 428 b 532 0 94 173 294 0 l 1009 0 b 1488 400 1247 0 1447 173 b 1496 486 1493 428 1496 457 b 1009 972 1496 753 1277 972 l 771 972 z m 772 1252 l 531 1252 l 830 1064 l 1010 1064 l 920 1135 z m 532 149 b 207 395 378 149 247 254 b 194 486 199 424 194 455 b 223 621 194 534 205 580 b 532 824 275 740 395 824 l 1009 824 b 1319 621 1147 824 1266 740 b 1347 486 1337 580 1347 534 b 1334 395 1347 455 1343 424 b 1009 149 1294 254 1163 149 z "},"Ó":{"ha":1542,"x_min":0,"x_max":0,"o":"m 532 972 b 46 486 265 972 46 753 b 54 400 46 457 48 428 b 532 0 94 173 294 0 l 1009 0 b 1488 400 1247 0 1447 173 b 1496 486 1493 428 1496 457 b 1009 972 1496 753 1277 972 z m 621 1135 l 531 1064 l 712 1064 l 1010 1252 l 770 1252 z m 532 149 b 207 395 378 149 247 254 b 194 486 199 424 194 455 b 223 621 194 534 205 580 b 532 824 275 740 395 824 l 1009 824 b 1318 621 1147 824 1266 740 b 1347 486 1337 580 1347 534 b 1334 395 1347 455 1343 424 b 1009 149 1294 254 1163 149 z "},"Ô":{"ha":1542,"x_min":0,"x_max":0,"o":"m 532 972 b 46 486 265 972 46 753 b 54 400 46 457 48 428 b 532 0 94 173 294 0 l 1010 0 b 1488 400 1248 0 1447 173 b 1496 486 1493 428 1496 457 b 1010 972 1496 753 1277 972 z m 1160 1064 l 861 1252 l 680 1252 l 382 1064 l 623 1064 l 771 1181 l 919 1064 z m 532 149 b 207 395 378 149 247 254 b 194 486 199 424 194 455 b 223 621 194 534 205 580 b 532 824 275 740 395 824 l 1009 824 b 1318 621 1147 824 1266 740 b 1347 486 1337 580 1347 534 b 1334 395 1347 455 1343 424 b 1009 149 1294 254 1163 149 z "},"Õ":{"ha":1542,"x_min":0,"x_max":0,"o":"m 532 972 b 46 486 265 972 46 753 b 54 400 46 457 48 428 b 532 0 94 173 294 0 l 1009 0 b 1488 400 1247 0 1447 173 b 1496 486 1493 428 1496 457 b 1009 972 1496 753 1277 972 z m 690 1163 b 595 1163 664 1138 621 1138 l 530 1229 l 443 1159 l 525 1076 b 776 1076 594 1007 707 1007 l 852 1152 b 946 1152 878 1178 920 1178 l 1011 1086 l 1098 1156 l 1016 1239 b 765 1239 947 1308 834 1308 z m 532 149 b 207 395 378 149 247 254 b 194 486 199 424 194 455 b 223 621 194 534 205 580 b 532 824 275 740 395 824 l 1009 824 b 1318 621 1147 824 1266 740 b 1347 486 1337 580 1347 534 b 1334 395 1347 455 1343 424 b 1009 149 1294 254 1163 149 z "},"Ö":{"ha":1542,"x_min":0,"x_max":0,"o":"m 532 972 b 46 486 265 972 46 753 b 54 400 46 457 48 428 b 532 0 94 173 294 0 l 1009 0 b 1488 400 1247 0 1447 173 b 1496 486 1493 428 1496 457 b 1009 972 1496 753 1277 972 z m 590 1232 l 590 1083 l 738 1083 l 738 1232 z m 803 1232 l 803 1083 l 952 1083 l 952 1232 z m 532 149 b 207 395 378 149 247 254 b 194 486 199 424 194 455 b 223 621 194 534 205 580 b 532 824 275 740 395 824 l 1010 824 b 1319 621 1147 824 1266 740 b 1347 486 1337 580 1347 534 b 1334 395 1347 455 1343 424 b 1010 149 1294 254 1163 149 z "},"×":{"ha":644,"x_min":0,"x_max":0,"o":"m 217 487 l 69 339 l 174 234 l 322 382 l 470 234 l 574 339 l 426 487 l 574 634 l 470 739 l 322 591 l 174 739 l 69 634 z "},"Ø":{"ha":1618,"x_min":0,"x_max":0,"o":"m 1580 848 l 1506 976 l 1335 878 b 1048 972 1254 937 1155 972 l 570 972 b 84 486 303 972 84 753 b 92 400 84 457 86 428 b 173 207 104 329 133 264 l 38 129 l 112 0 l 280 97 b 570 0 361 36 461 0 l 1048 0 b 1526 400 1286 0 1485 173 b 1534 486 1531 428 1534 457 b 1443 768 1534 591 1500 689 z m 245 395 b 232 486 237 424 232 455 b 261 621 232 534 243 580 b 570 824 313 740 433 824 l 1048 824 b 1188 793 1097 824 1145 812 l 302 282 b 245 395 277 315 257 354 z m 1357 621 b 1385 486 1375 580 1385 534 b 1372 395 1385 455 1381 424 b 1048 149 1332 254 1201 149 l 570 149 b 426 181 519 149 470 161 l 1313 693 b 1357 621 1330 671 1345 647 z "},"Ù":{"ha":1503,"x_min":0,"x_max":0,"o":"m 1259 296 l 1259 0 l 1407 0 l 1407 972 l 1259 972 l 1259 451 b 1156 273 1259 376 1222 311 l 988 176 b 885 149 955 157 923 149 l 411 149 b 231 329 312 149 231 230 l 231 972 l 82 972 l 82 329 b 411 0 82 148 230 0 l 692 0 b 794 28 729 0 762 9 l 1004 149 z m 746 1252 l 505 1252 l 804 1064 l 984 1064 l 894 1135 z "},"Ú":{"ha":1503,"x_min":0,"x_max":0,"o":"m 1259 296 l 1259 0 l 1407 0 l 1407 972 l 1259 972 l 1259 451 b 1156 273 1259 376 1221 311 l 988 176 b 885 149 955 157 923 149 l 411 149 b 231 329 312 149 231 230 l 231 972 l 82 972 l 82 329 b 411 0 82 148 230 0 l 692 0 b 794 28 729 0 762 9 l 1004 149 z m 595 1135 l 505 1064 l 686 1064 l 984 1252 l 744 1252 z "},"Û":{"ha":1503,"x_min":0,"x_max":0,"o":"m 1259 296 l 1259 0 l 1408 0 l 1408 972 l 1259 972 l 1259 451 b 1156 273 1259 376 1222 311 l 988 176 b 885 149 955 157 923 149 l 411 149 b 231 329 312 149 231 230 l 231 972 l 82 972 l 82 329 b 411 0 82 148 230 0 l 692 0 b 794 28 729 0 762 9 l 1004 149 z m 1134 1064 l 835 1252 l 654 1252 l 356 1064 l 597 1064 l 745 1180 l 893 1064 z "},"Ü":{"ha":1503,"x_min":0,"x_max":0,"o":"m 1259 296 l 1259 0 l 1408 0 l 1408 972 l 1259 972 l 1259 451 b 1156 273 1259 376 1222 311 l 988 176 b 885 149 955 157 923 149 l 411 149 b 231 329 312 149 231 230 l 231 972 l 82 972 l 82 329 b 411 0 82 148 230 0 l 692 0 b 794 28 729 0 762 9 l 1004 149 z m 564 1232 l 564 1083 l 712 1083 l 712 1232 z m 777 1232 l 777 1083 l 926 1083 l 926 1232 z "},"Ý":{"ha":1374,"x_min":0,"x_max":0,"o":"m 24 753 b 60 690 24 726 37 704 l 172 625 l 176 623 l 237 588 l 427 478 l 478 449 b 514 439 489 442 501 439 l 612 439 l 612 0 l 761 0 l 761 439 l 859 439 b 895 449 872 439 884 442 l 946 478 l 974 494 l 1136 588 l 1197 623 l 1201 625 l 1313 690 b 1349 753 1336 704 1349 726 l 1349 972 l 1201 972 b 1201 780 1201 972 1201 780 b 1098 603 1200 705 1163 640 l 1089 598 b 1053 588 1077 591 1066 588 l 320 588 b 284 598 307 588 295 591 l 275 603 b 172 780 210 640 173 705 b 172 781 172 780 172 780 l 172 972 l 24 972 z m 537 1135 l 447 1064 l 627 1064 l 926 1252 l 685 1252 z "},"Þ":{"ha":1457,"x_min":0,"x_max":0,"o":"m 243 552 l 243 972 l 94 972 l 94 0 l 243 0 l 243 189 l 1091 189 b 1420 519 1272 189 1420 338 b 1091 848 1420 700 1272 848 l 810 848 b 708 821 773 848 740 839 l 498 699 z m 1091 699 b 1271 519 1190 699 1271 618 b 1091 338 1271 420 1190 338 l 243 338 l 243 397 b 346 575 243 472 280 537 l 514 672 b 617 699 547 691 579 699 z "},"ß":{"ha":1450,"x_min":0,"x_max":0,"o":"m 82 693 l 82 -313 l 234 -313 l 234 150 b 333 288 245 208 280 257 l 501 385 b 604 413 534 404 566 413 l 1127 413 b 1142 413 1132 413 1137 413 l 1141 412 b 1259 281 1207 405 1259 349 b 1127 150 1259 209 1199 150 l 383 150 l 383 1 l 934 1 b 1036 28 971 1 1004 10 l 1246 150 l 1402 239 l 1405 241 b 1408 281 1407 254 1408 268 b 1317 487 1408 362 1373 436 b 1252 532 1298 505 1276 520 b 1215 547 1241 538 1228 543 l 1385 645 l 1405 657 b 1408 693 1407 669 1408 681 b 1127 973 1408 847 1281 973 l 362 973 b 82 693 208 973 82 847 z m 473 825 l 1127 825 b 1259 693 1199 825 1259 765 b 1127 561 1259 621 1199 561 l 798 561 b 695 534 760 561 728 553 l 485 413 l 231 266 l 231 693 b 362 825 231 765 290 825 l 473 825 z "},"à":{"ha":1456,"x_min":0,"x_max":0,"o":"m 1167 658 l 377 658 b 47 329 195 658 47 510 b 377 0 47 148 195 0 l 657 0 b 759 27 695 0 727 8 l 969 148 l 1224 295 l 1224 0 l 1373 0 l 1373 658 l 1167 658 z m 1224 451 b 1121 273 1224 375 1187 310 l 953 176 b 851 148 921 157 888 148 l 377 148 b 196 329 277 148 196 230 b 377 510 196 428 277 510 l 1224 510 z m 950 750 l 859 821 l 711 938 l 470 938 l 769 750 z "},"á":{"ha":1456,"x_min":0,"x_max":0,"o":"m 950 938 l 709 938 l 561 821 l 470 750 l 651 750 z m 1167 658 l 377 658 b 47 329 195 658 47 510 b 377 0 47 148 195 0 l 657 0 b 759 27 694 0 727 8 l 969 148 l 1224 295 l 1224 0 l 1373 0 l 1373 658 l 1167 658 z m 1224 451 b 1121 273 1224 375 1187 310 l 953 176 b 851 148 921 157 888 148 l 377 148 b 196 329 277 148 196 230 b 377 510 196 428 277 510 l 1224 510 z "},"â":{"ha":1456,"x_min":0,"x_max":0,"o":"m 1167 658 l 377 658 b 47 329 195 658 47 510 b 377 0 47 148 195 0 l 657 0 b 759 27 694 0 727 8 l 969 148 l 1224 295 l 1224 0 l 1373 0 l 1373 658 l 1167 658 z m 1224 451 b 1121 273 1224 375 1187 310 l 953 176 b 851 148 921 157 888 148 l 377 148 b 196 329 277 148 196 230 b 377 510 196 428 277 510 l 1224 510 z m 562 750 l 710 867 l 858 750 l 1099 750 l 800 938 l 620 938 l 321 750 z "},"ã":{"ha":1456,"x_min":0,"x_max":0,"o":"m 1167 658 l 377 658 b 47 329 195 658 47 510 b 377 0 47 148 195 0 l 657 0 b 759 27 694 0 727 8 l 969 148 l 1224 295 l 1224 0 l 1373 0 l 1373 658 l 1167 658 z m 1224 451 b 1121 273 1224 375 1187 310 l 953 176 b 851 148 921 157 888 148 l 377 148 b 196 329 277 148 196 230 b 377 510 196 428 277 510 l 1224 510 z m 716 762 l 791 838 b 885 838 817 864 859 864 l 951 772 l 1038 843 l 955 925 b 704 925 886 994 773 994 l 667 887 l 629 849 b 535 849 603 824 561 824 l 469 915 l 382 845 l 465 762 b 716 762 534 693 647 693 z "},"ä":{"ha":1456,"x_min":0,"x_max":0,"o":"m 1167 658 l 377 658 b 47 329 195 658 47 510 b 377 0 47 148 195 0 l 657 0 b 759 27 694 0 727 8 l 969 148 l 1224 295 l 1224 0 l 1373 0 l 1373 658 l 1167 658 z m 1224 451 b 1121 273 1224 375 1187 310 l 953 176 b 851 148 921 157 888 148 l 377 148 b 196 329 277 148 196 230 b 377 510 196 428 277 510 l 1224 510 z m 678 769 l 678 918 l 529 918 l 529 769 z m 891 769 l 891 918 l 742 918 l 742 769 z "},"å":{"ha":1456,"x_min":0,"x_max":0,"o":"m 1167 658 l 939 658 b 993 792 972 693 993 740 b 920 942 993 852 965 907 b 787 983 882 968 837 983 l 633 983 b 500 942 583 983 538 968 b 427 792 455 907 427 852 b 481 658 427 740 448 693 l 377 658 b 47 329 195 658 47 510 b 377 0 47 148 195 0 l 657 0 b 759 27 694 0 727 8 l 969 148 l 1224 295 l 1224 0 l 1373 0 l 1373 658 l 1167 658 z m 544 747 b 633 835 544 795 584 835 l 787 835 b 876 747 836 835 876 795 b 787 658 876 698 836 658 l 632 658 b 544 747 584 658 544 698 z m 1224 451 b 1121 273 1224 375 1187 310 l 953 176 b 851 148 921 157 888 148 l 377 148 b 196 329 277 148 196 230 b 377 510 196 428 277 510 l 1224 510 z "},"æ":{"ha":2593,"x_min":0,"x_max":0,"o":"m 1554 658 b 1373 604 1487 658 1425 638 l 1373 658 l 377 658 b 47 329 195 658 47 510 b 377 0 47 148 195 0 l 657 0 b 759 27 694 0 727 8 l 969 148 l 1224 295 l 1224 0 l 1373 0 l 1373 54 b 1554 0 1425 20 1487 0 l 2099 0 b 2202 27 2137 0 2169 8 l 2411 148 l 2550 228 l 2550 265 l 2395 176 b 2293 148 2363 157 2330 148 l 1554 148 b 1373 313 1460 148 1382 221 l 2124 313 b 2227 340 2162 313 2194 322 l 2436 462 l 2520 510 l 2550 527 l 2550 658 z m 1121 273 l 953 176 b 851 148 921 157 888 148 l 377 148 b 196 329 277 148 196 230 b 377 510 196 428 277 510 l 1224 510 l 1224 451 b 1121 273 1224 375 1187 310 z m 2320 431 l 2218 372 b 2115 345 2185 353 2153 345 l 1373 345 b 1554 510 1382 437 1460 510 l 2456 510 z "},"ç":{"ha":1418,"x_min":0,"x_max":0,"o":"m 377 658 b 47 329 195 658 47 510 b 377 0 47 148 195 0 l 743 0 b 814 -71 782 0 814 -32 b 743 -141 814 -110 782 -141 l 500 -141 l 500 -289 l 760 -289 b 920 -129 848 -289 920 -217 b 856 0 920 -76 895 -30 l 922 0 b 1025 27 960 0 992 8 l 1234 148 l 1373 228 l 1373 265 l 1218 176 b 1116 148 1186 157 1153 148 l 377 148 b 196 329 278 148 196 230 b 377 510 196 428 278 510 l 1373 510 l 1373 658 z "},"è":{"ha":1417,"x_min":0,"x_max":0,"o":"m 377 659 b 47 330 195 659 47 511 b 377 1 47 149 195 1 l 922 1 b 1025 28 960 1 992 9 l 1234 149 l 1373 229 l 1373 266 l 1218 177 b 1116 149 1186 158 1153 149 l 377 149 b 197 314 283 149 205 222 l 947 314 b 1050 342 985 314 1017 323 l 1260 463 l 1343 511 l 1373 528 l 1373 659 z m 1143 432 l 1041 373 b 939 346 1009 355 976 346 l 197 346 b 377 511 205 438 283 511 l 1279 511 z m 950 723 l 859 794 l 711 911 l 470 911 l 769 723 z "},"é":{"ha":1417,"x_min":0,"x_max":0,"o":"m 377 659 b 47 330 195 659 47 511 b 377 1 47 149 195 1 l 922 1 b 1025 28 960 1 992 9 l 1234 149 l 1373 229 l 1373 266 l 1218 177 b 1116 149 1186 158 1153 149 l 377 149 b 197 314 283 149 205 222 l 947 314 b 1050 342 985 314 1017 323 l 1260 463 l 1343 511 l 1373 528 l 1373 659 z m 1143 432 l 1041 373 b 939 346 1009 355 976 346 l 197 346 b 377 511 205 438 283 511 l 1279 511 z m 950 911 l 709 911 l 561 794 l 470 723 l 651 723 z "},"ê":{"ha":1417,"x_min":0,"x_max":0,"o":"m 377 659 b 47 330 195 659 47 511 b 377 1 47 149 195 1 l 922 1 b 1025 28 960 1 992 9 l 1234 149 l 1373 229 l 1373 266 l 1218 177 b 1116 149 1186 158 1153 149 l 377 149 b 197 314 283 149 205 222 l 947 314 b 1050 342 985 314 1017 323 l 1260 463 l 1343 511 l 1373 528 l 1373 659 z m 1143 432 l 1041 373 b 939 346 1009 355 976 346 l 197 346 b 377 511 205 438 283 511 l 1279 511 z m 562 723 l 710 840 l 858 723 l 1099 723 l 800 911 l 620 911 l 321 723 z "},"ë":{"ha":1417,"x_min":0,"x_max":0,"o":"m 377 659 b 47 330 195 659 47 511 b 377 1 47 149 195 1 l 922 1 b 1025 28 960 1 992 9 l 1234 149 l 1373 229 l 1373 266 l 1218 177 b 1116 149 1186 158 1153 149 l 377 149 b 197 314 283 149 205 222 l 947 314 b 1050 342 985 314 1017 323 l 1260 463 l 1343 511 l 1373 528 l 1373 659 z m 1143 432 l 1041 373 b 939 346 1009 355 976 346 l 197 346 b 377 511 205 438 283 511 l 1279 511 z m 891 743 l 891 892 l 742 892 l 742 743 z m 678 743 l 678 892 l 529 892 l 529 743 z "},"ì":{"ha":311,"x_min":0,"x_max":0,"o":"m 81 1 l 229 1 l 229 659 l 81 659 z m 395 723 l 304 794 l 156 911 l -85 911 l 214 723 z "},"í":{"ha":311,"x_min":0,"x_max":0,"o":"m 81 1 l 229 1 l 229 659 l 81 659 z m 395 911 l 154 911 l 6 794 l -85 723 l 96 723 z "},"î":{"ha":313,"x_min":0,"x_max":0,"o":"m 81 1 l 230 1 l 230 659 l 81 659 z m 246 911 l 65 911 l -233 723 l 8 723 l 156 840 l 304 723 l 545 723 z "},"ï":{"ha":313,"x_min":0,"x_max":0,"o":"m 82 1 l 230 1 l 230 659 l 82 659 z m 124 743 l 124 892 l -25 892 l -25 743 z m 337 743 l 337 892 l 188 892 l 188 743 z "},"ð":{"ha":1438,"x_min":0,"x_max":0,"o":"m 1318 824 b 1043 972 1259 913 1158 972 l 784 972 l 784 1062 l 636 1062 l 636 972 l 153 972 l 153 824 l 636 824 l 636 734 l 784 734 l 784 824 l 1043 824 b 1224 643 1143 824 1224 742 l 1224 604 b 1043 659 1172 639 1110 659 l 377 659 b 47 329 195 659 47 511 b 377 0 47 148 195 0 l 1043 0 b 1373 329 1225 0 1373 148 l 1373 643 b 1318 824 1373 709 1353 772 z m 1043 149 l 377 149 b 196 329 277 149 196 230 b 377 510 196 429 277 510 l 1043 510 b 1224 329 1143 510 1224 429 b 1043 149 1224 230 1143 149 z "},"ñ":{"ha":1471,"x_min":0,"x_max":0,"o":"m 1077 659 l 797 659 b 694 632 759 659 726 651 l 484 511 l 229 364 l 229 659 l 81 659 l 81 1 l 229 1 l 229 208 b 332 386 229 284 267 348 l 500 483 b 603 511 533 502 565 511 l 1077 511 b 1257 330 1176 511 1257 429 l 1257 1 l 1406 1 l 1406 330 b 1077 659 1406 511 1258 659 z m 749 736 l 824 811 b 919 811 850 837 893 837 l 984 746 l 1071 816 l 989 898 b 738 898 920 968 807 968 l 662 823 b 568 823 636 797 594 797 l 503 889 l 416 818 l 498 736 b 749 736 567 667 680 667 z "},"ò":{"ha":1421,"x_min":0,"x_max":0,"o":"m 1043 659 l 377 659 b 47 330 195 659 47 511 b 377 1 47 149 195 1 l 1043 1 b 1373 330 1225 1 1373 149 b 1043 659 1373 511 1225 659 z m 1043 149 l 377 149 b 196 330 277 149 196 231 b 377 511 196 429 277 511 l 1043 511 b 1224 330 1143 511 1224 429 b 1043 149 1224 231 1143 149 z m 950 723 l 859 794 l 711 911 l 470 911 l 769 723 z "},"ó":{"ha":1421,"x_min":0,"x_max":0,"o":"m 950 911 l 709 911 l 561 794 l 470 723 l 651 723 z m 1043 659 l 377 659 b 47 330 195 659 47 511 b 377 1 47 149 195 1 l 1043 1 b 1373 330 1225 1 1373 149 b 1043 659 1373 511 1225 659 z m 1043 149 l 377 149 b 196 330 277 149 196 231 b 377 511 196 429 277 511 l 1043 511 b 1224 330 1143 511 1224 429 b 1043 149 1224 231 1143 149 z "},"ô":{"ha":1421,"x_min":0,"x_max":0,"o":"m 1043 659 l 377 659 b 47 330 195 659 47 511 b 377 1 47 149 195 1 l 1043 1 b 1373 330 1225 1 1373 149 b 1043 659 1373 511 1225 659 z m 1043 149 l 377 149 b 196 330 277 149 196 231 b 377 511 196 429 277 511 l 1043 511 b 1224 330 1143 511 1224 429 b 1043 149 1224 231 1143 149 z m 562 723 l 710 840 l 858 723 l 1099 723 l 800 911 l 620 911 l 321 723 z "},"õ":{"ha":1421,"x_min":0,"x_max":0,"o":"m 717 735 l 792 811 b 886 811 818 837 860 837 l 952 745 l 1039 815 l 957 898 b 705 898 887 967 774 967 l 630 822 b 536 822 604 797 562 797 l 470 888 l 383 818 l 466 735 b 717 735 535 666 648 666 z m 1043 659 l 377 659 b 47 329 195 659 47 511 b 377 0 47 148 195 0 l 1043 0 b 1373 329 1225 0 1373 148 b 1043 659 1373 511 1225 659 z m 1043 149 l 377 149 b 196 329 277 149 196 230 b 377 510 196 428 277 510 l 1043 510 b 1224 329 1143 510 1224 428 b 1043 149 1224 230 1143 149 z "},"ö":{"ha":1421,"x_min":0,"x_max":0,"o":"m 1043 659 l 377 659 b 47 330 195 659 47 511 b 377 1 47 149 195 1 l 1043 1 b 1373 330 1225 1 1373 149 b 1043 659 1373 511 1225 659 z m 1043 149 l 377 149 b 196 330 277 149 196 231 b 377 511 196 429 277 511 l 1043 511 b 1224 330 1143 511 1224 429 b 1043 149 1224 231 1143 149 z m 891 743 l 891 892 l 742 892 l 742 743 z m 678 743 l 678 892 l 529 892 l 529 743 z "},"÷":{"ha":678,"x_min":0,"x_max":0,"o":"m 621 560 l 56 560 l 56 413 l 621 413 z m 264 831 l 264 683 l 413 683 l 413 831 z m 264 290 l 264 142 l 413 142 l 413 290 z "},"ø":{"ha":1494,"x_min":0,"x_max":0,"o":"m 1457 504 l 1406 643 l 1275 595 b 1081 659 1221 635 1153 659 l 414 659 b 85 330 233 659 85 511 b 125 172 85 273 99 219 l 37 140 l 89 1 l 235 54 b 414 1 286 21 348 1 l 1081 1 b 1410 330 1262 1 1410 149 b 1376 474 1410 382 1398 430 z m 233 330 b 414 511 233 429 315 511 l 1046 511 l 268 225 b 233 330 246 254 233 291 z m 1262 330 b 1081 149 1262 231 1180 149 l 493 149 l 1236 422 b 1262 330 1252 395 1262 364 z "},"ù":{"ha":1471,"x_min":0,"x_max":0,"o":"m 1241 452 b 1138 274 1241 376 1203 312 l 970 177 b 867 149 937 158 905 149 l 393 149 b 213 330 294 149 213 231 l 213 659 l 64 659 l 64 330 b 393 1 64 149 212 1 l 673 1 b 776 28 711 1 744 9 l 986 149 l 1241 296 l 1241 1 l 1389 1 l 1389 659 l 1241 659 z m 966 723 l 876 794 l 728 911 l 487 911 l 786 723 z "},"ú":{"ha":1471,"x_min":0,"x_max":0,"o":"m 966 911 l 725 911 l 577 794 l 487 723 l 668 723 z m 1241 452 b 1138 274 1241 376 1203 312 l 970 177 b 867 149 937 158 905 149 l 393 149 b 213 330 294 149 213 231 l 213 659 l 64 659 l 64 330 b 393 1 64 149 212 1 l 673 1 b 776 28 711 1 743 9 l 986 149 l 1241 296 l 1241 1 l 1389 1 l 1389 659 l 1241 659 z "},"û":{"ha":1471,"x_min":0,"x_max":0,"o":"m 1241 452 b 1138 274 1241 376 1203 312 l 970 177 b 867 149 937 158 905 149 l 393 149 b 213 330 294 149 213 231 l 213 659 l 64 659 l 64 330 b 393 1 64 149 212 1 l 673 1 b 776 28 711 1 743 9 l 986 149 l 1241 296 l 1241 1 l 1389 1 l 1389 659 l 1241 659 z m 578 723 l 727 840 l 875 723 l 1116 723 l 817 911 l 636 911 l 338 723 z "},"ü":{"ha":1471,"x_min":0,"x_max":0,"o":"m 1241 452 b 1138 274 1241 376 1203 312 l 970 177 b 867 149 937 158 905 149 l 393 149 b 213 330 294 149 213 231 l 213 659 l 64 659 l 64 330 b 393 1 64 149 212 1 l 673 1 b 776 28 711 1 743 9 l 986 149 l 1241 296 l 1241 1 l 1389 1 l 1389 659 l 1241 659 z m 908 743 l 908 892 l 759 892 l 759 743 z m 694 743 l 694 892 l 546 892 l 546 743 z "},"ý":{"ha":1472,"x_min":0,"x_max":0,"o":"m 966 910 l 725 910 l 577 793 l 487 722 l 668 722 z m 1241 450 b 1138 273 1241 375 1203 310 l 970 175 b 867 148 937 157 905 148 l 393 148 b 213 329 294 148 213 230 l 213 658 l 64 658 l 64 329 b 393 -1 64 147 212 -1 l 673 -1 b 776 27 711 -1 743 8 l 986 148 l 1241 295 l 1241 -99 l 1173 -138 b 1070 -166 1140 -157 1108 -166 l 102 -166 l 102 -314 l 876 -314 b 979 -287 914 -314 946 -306 l 1189 -166 l 1241 -136 l 1389 -50 l 1389 658 l 1241 658 z "},"þ":{"ha":1456,"x_min":0,"x_max":0,"o":"m 1078 658 l 798 658 b 695 630 760 658 728 649 l 485 509 l 231 362 l 231 971 l 82 971 l 82 -314 l 231 -314 l 231 -1 l 1078 -1 b 1407 329 1259 -1 1407 147 b 1078 658 1407 510 1259 658 z m 1078 148 l 231 148 l 231 207 b 333 385 231 282 268 347 l 501 482 b 604 509 534 501 566 509 l 1078 509 b 1259 329 1177 509 1259 428 b 1078 148 1259 230 1177 148 z "},"ÿ":{"ha":1472,"x_min":0,"x_max":0,"o":"m 1241 450 b 1138 273 1241 375 1203 310 l 970 175 b 867 148 937 157 905 148 l 393 148 b 213 329 294 148 213 230 l 213 658 l 64 658 l 64 329 b 393 -1 64 147 212 -1 l 673 -1 b 776 27 711 -1 743 8 l 986 148 l 1241 295 l 1241 -99 l 1173 -138 b 1070 -166 1140 -157 1108 -166 l 102 -166 l 102 -314 l 876 -314 b 979 -287 914 -314 946 -306 l 1189 -166 l 1241 -136 l 1389 -50 l 1389 658 l 1241 658 z m 908 742 l 908 890 l 759 890 l 759 742 z m 694 742 l 694 890 l 546 890 l 546 742 z "},"Ā":{"ha":1503,"x_min":0,"x_max":0,"o":"m 1259 972 l 411 972 b 82 643 230 972 82 824 l 82 0 l 231 0 l 231 256 l 591 256 b 694 283 629 256 661 264 l 904 404 l 1085 509 l 1088 511 l 1117 527 l 1259 609 l 1259 0 l 1408 0 l 1408 972 l 1259 972 z m 1259 765 b 1156 587 1259 689 1221 624 l 1117 564 l 888 432 b 785 404 855 413 823 404 l 231 404 l 231 643 b 411 824 231 742 312 824 l 1259 824 z m 1023 1083 l 1023 1232 l 467 1232 l 467 1083 z "},"ā":{"ha":1456,"x_min":0,"x_max":0,"o":"m 1167 658 l 377 658 b 47 329 195 658 47 510 b 377 0 47 148 195 0 l 657 0 b 759 27 694 0 727 8 l 969 148 l 1224 295 l 1224 0 l 1373 0 l 1373 658 l 1167 658 z m 1224 451 b 1121 273 1224 375 1187 310 l 953 176 b 851 148 921 157 888 148 l 377 148 b 196 329 277 148 196 230 b 377 510 196 428 277 510 l 1224 510 l 1224 451 z m 988 769 l 988 918 l 432 918 l 432 769 z "},"Ă":{"ha":1503,"x_min":0,"x_max":0,"o":"m 1259 972 l 411 972 b 82 643 230 972 82 824 l 82 0 l 231 0 l 231 256 l 591 256 b 694 283 629 256 661 264 l 904 404 l 1085 509 l 1088 511 l 1117 527 l 1259 609 l 1259 0 l 1408 0 l 1408 972 l 1259 972 z m 1259 765 b 1156 587 1259 689 1221 624 l 1117 564 l 888 432 b 785 404 855 413 823 404 l 231 404 l 231 643 b 411 824 231 742 312 824 l 1259 824 z m 633 1042 l 857 1042 b 1034 1220 954 1042 1034 1122 l 1034 1273 l 911 1273 l 911 1220 b 845 1153 911 1183 881 1153 l 645 1153 b 578 1220 608 1153 578 1183 l 578 1273 l 455 1273 l 455 1220 b 633 1042 455 1122 535 1042 z "},"ă":{"ha":1456,"x_min":0,"x_max":0,"o":"m 1167 658 l 377 658 b 47 329 195 658 47 510 b 377 0 47 148 195 0 l 657 0 b 759 27 694 0 727 8 l 969 148 l 1224 295 l 1224 0 l 1373 0 l 1373 658 l 1167 658 z m 1224 451 b 1121 273 1224 375 1187 310 l 953 176 b 851 148 921 157 888 148 l 377 148 b 196 329 277 148 196 230 b 377 510 196 428 277 510 l 1224 510 z m 598 728 l 822 728 b 999 906 920 728 999 808 l 999 959 l 876 959 l 876 906 b 810 839 876 869 846 839 l 610 839 b 544 906 574 839 544 869 l 544 959 l 421 959 l 421 906 b 598 728 421 808 500 728 z "},"Ą":{"ha":1503,"x_min":0,"x_max":0,"o":"m 1259 972 l 411 972 b 82 643 230 972 82 824 l 82 0 l 231 0 l 231 256 l 591 256 b 694 283 629 256 661 264 l 904 404 l 1085 509 l 1088 511 l 1117 527 l 1259 609 l 1259 32 l 1147 32 b 1051 0 1111 32 1078 20 b 987 -128 1012 -29 987 -76 b 1147 -288 987 -216 1059 -288 l 1408 -288 l 1408 -141 l 1164 -141 b 1093 -70 1125 -141 1093 -109 b 1164 0 1093 -32 1125 0 l 1408 0 l 1408 972 l 1259 972 z m 1259 765 b 1156 587 1259 689 1221 624 l 1117 564 l 888 432 b 785 404 855 413 823 404 l 231 404 l 231 643 b 411 824 231 742 312 824 l 1259 824 l 1259 765 z "},"ą":{"ha":1456,"x_min":0,"x_max":0,"o":"m 1167 658 l 377 658 b 47 329 195 658 47 510 b 377 0 47 148 195 0 l 657 0 b 759 27 694 0 727 8 l 969 148 l 1224 295 l 1224 31 l 1112 31 b 1016 0 1076 31 1043 19 b 952 -129 977 -30 952 -76 b 1112 -289 952 -217 1024 -289 l 1373 -289 l 1373 -141 l 1129 -141 b 1059 -71 1090 -141 1059 -110 b 1129 0 1059 -32 1090 0 l 1373 0 l 1373 658 l 1167 658 z m 1121 273 l 953 176 b 851 148 921 157 888 148 l 377 148 b 196 329 277 148 196 230 b 377 510 196 428 277 510 l 1224 510 l 1224 451 b 1121 273 1224 375 1187 310 z "},"Ć":{"ha":1406,"x_min":0,"x_max":0,"o":"m 948 1252 l 707 1252 l 559 1135 l 469 1064 l 649 1064 z m 1223 179 l 1217 176 b 1114 149 1184 157 1152 149 l 532 149 b 207 395 378 149 247 254 b 194 486 199 424 194 455 b 223 621 194 534 205 580 b 532 824 275 740 395 824 l 1371 824 l 1371 972 l 532 972 b 46 486 265 972 46 753 b 54 400 46 457 48 428 b 532 0 94 173 294 0 l 921 0 b 1023 27 958 0 991 9 l 1233 149 l 1371 229 l 1371 265 z "},"ć":{"ha":1418,"x_min":0,"x_max":0,"o":"m 950 938 l 709 938 l 561 821 l 470 750 l 651 750 z m 377 658 b 47 329 195 658 47 510 b 377 0 47 148 195 0 l 922 0 b 1025 27 960 0 992 8 l 1234 148 l 1373 228 l 1373 265 l 1218 176 b 1116 148 1186 157 1153 148 l 377 148 b 196 329 277 148 196 230 b 377 510 196 428 277 510 l 1373 510 l 1373 658 z "},"Č":{"ha":1406,"x_min":0,"x_max":0,"o":"m 799 1064 l 1098 1252 l 857 1252 l 709 1135 l 560 1252 l 320 1252 l 618 1064 z m 1223 179 l 1217 176 b 1114 149 1184 157 1152 149 l 532 149 b 207 395 378 149 247 254 b 194 486 199 424 194 455 b 223 621 194 534 205 580 b 532 824 275 740 395 824 l 1371 824 l 1371 972 l 532 972 b 46 486 265 972 46 753 b 54 400 46 457 48 428 b 532 0 94 173 294 0 l 921 0 b 1023 28 958 0 991 9 l 1233 149 l 1371 229 l 1371 265 z "},"č":{"ha":1418,"x_min":0,"x_max":0,"o":"m 377 658 b 47 329 195 658 47 510 b 377 0 47 148 195 0 l 922 0 b 1025 27 960 0 992 8 l 1234 148 l 1373 228 l 1373 265 l 1218 176 b 1116 148 1186 157 1153 148 l 377 148 b 196 329 277 148 196 230 b 377 510 196 428 277 510 l 1373 510 l 1373 658 z m 800 750 l 1099 938 l 858 938 l 710 821 l 562 938 l 321 938 l 620 750 z "},"Ď":{"ha":1488,"x_min":0,"x_max":0,"o":"m 1366 824 b 1091 972 1307 913 1205 972 l 94 972 l 94 0 l 969 0 b 1072 28 1007 0 1039 9 l 1271 143 l 1282 149 l 1420 229 l 1420 643 b 1366 824 1420 709 1400 772 z m 1271 179 l 1266 176 b 1163 149 1233 157 1201 149 l 243 149 l 243 824 b 581 824 244 824 580 824 l 1091 824 b 1271 643 1190 824 1271 742 z m 847 1064 l 1146 1252 l 905 1252 l 757 1135 l 609 1252 l 368 1252 l 667 1064 z "},"ď":{"ha":1454,"x_min":0,"x_max":0,"o":"m 377 659 b 47 330 195 659 47 511 b 377 1 47 149 195 1 l 657 1 b 759 28 695 1 727 9 l 969 149 l 1224 296 l 1224 1 l 1373 1 l 1373 973 l 1224 973 l 1224 659 z m 1224 452 b 1121 274 1224 376 1187 312 l 953 177 b 851 149 921 158 888 149 l 377 149 b 196 330 277 149 196 231 b 377 511 196 429 277 511 l 1224 511 l 1224 452 z m 1408 973 l 1408 824 l 1482 824 l 1392 750 l 1466 750 l 1556 824 l 1556 973 z "},"đ":{"ha":1456,"x_min":0,"x_max":0,"o":"m 1373 973 l 1224 973 l 1224 892 l 904 892 l 904 743 l 1224 743 l 1224 659 l 377 659 b 47 330 195 659 47 511 b 377 1 47 149 195 1 l 657 1 b 759 28 695 1 727 9 l 969 149 l 1224 296 l 1224 1 l 1373 1 l 1373 743 l 1460 743 l 1460 892 l 1373 892 z m 1224 452 b 1121 274 1224 376 1187 312 l 953 177 b 851 149 921 158 888 149 l 377 149 b 196 330 277 149 196 231 b 377 511 196 429 277 511 l 1224 511 l 1224 452 z "},"Ē":{"ha":1433,"x_min":0,"x_max":0,"o":"m 987 1083 l 987 1232 l 431 1232 l 431 1083 z m 1223 180 l 1217 176 b 1114 149 1184 157 1152 149 l 532 149 b 334 213 458 149 390 173 b 311 264 318 225 310 243 b 340 312 312 284 322 302 l 341 312 l 465 384 b 568 412 498 403 530 412 l 1371 412 l 1371 560 l 762 560 b 659 533 724 560 692 552 l 449 412 l 252 298 b 207 395 232 327 217 360 b 194 486 199 424 194 455 b 223 621 194 534 205 580 b 532 824 275 740 395 824 l 1371 824 l 1371 972 l 532 972 b 46 486 265 972 46 753 b 54 400 46 457 48 428 b 532 0 94 173 294 0 l 921 0 b 1023 27 958 0 991 9 l 1233 149 l 1371 229 l 1371 265 z "},"ē":{"ha":1417,"x_min":0,"x_max":0,"o":"m 377 659 b 47 330 195 659 47 511 b 377 1 47 149 195 1 l 922 1 b 1025 28 960 1 992 9 l 1234 149 l 1373 229 l 1373 266 l 1218 177 b 1116 149 1186 158 1153 149 l 377 149 b 197 314 283 149 205 222 l 947 314 b 1050 342 985 314 1017 323 l 1260 463 l 1343 511 l 1373 528 l 1373 659 z m 1143 432 l 1041 373 b 939 346 1009 355 976 346 l 197 346 b 377 511 205 438 283 511 l 1279 511 z m 988 743 l 988 892 l 432 892 l 432 743 z "},"Ė":{"ha":1433,"x_min":0,"x_max":0,"o":"m 1223 180 l 1217 176 b 1114 149 1184 157 1152 149 l 532 149 b 334 213 458 149 390 173 b 311 264 318 225 310 243 b 340 312 312 284 322 302 l 341 312 l 465 384 b 568 412 498 403 530 412 l 1371 412 l 1371 560 l 762 560 b 659 533 724 560 692 552 l 449 412 l 252 298 b 207 395 232 327 217 360 b 194 486 199 424 194 455 b 223 621 194 534 205 580 b 532 824 275 740 395 824 l 1371 824 l 1371 972 l 532 972 b 46 486 265 972 46 753 b 54 400 46 457 48 428 b 532 0 94 173 294 0 l 921 0 b 1023 27 958 0 991 9 l 1233 149 l 1371 229 l 1371 265 z m 783 1083 l 783 1232 l 634 1232 l 634 1083 z "},"ė":{"ha":1417,"x_min":0,"x_max":0,"o":"m 377 659 b 47 330 195 659 47 511 b 377 1 47 149 195 1 l 922 1 b 1025 28 960 1 992 9 l 1234 149 l 1373 229 l 1373 266 l 1218 177 b 1116 149 1186 158 1153 149 l 377 149 b 197 314 283 149 205 222 l 947 314 b 1050 342 985 314 1017 323 l 1260 463 l 1343 511 l 1373 528 l 1373 659 z m 1143 432 l 1041 373 b 939 346 1009 355 976 346 l 197 346 b 377 511 205 438 283 511 l 1279 511 z m 784 743 l 784 892 l 636 892 l 636 743 z "},"Ę":{"ha":1432,"x_min":0,"x_max":0,"o":"m 1223 180 l 1217 176 b 1114 149 1184 157 1152 149 l 532 149 b 334 213 458 149 390 173 b 311 264 318 225 310 243 b 340 312 312 284 322 302 l 341 312 l 465 384 b 568 412 498 403 530 412 l 1371 412 l 1371 560 l 762 560 b 659 533 724 560 692 552 l 449 412 l 252 298 b 207 395 232 328 217 360 b 194 486 199 424 194 455 b 223 621 194 534 205 580 b 532 824 275 740 395 824 l 1371 824 l 1371 972 l 532 972 b 46 486 265 972 46 753 b 54 400 46 457 48 428 b 532 0 94 173 294 0 l 563 0 b 498 -128 524 -29 498 -76 b 658 -288 498 -216 570 -288 l 919 -288 l 919 -141 l 675 -141 b 605 -70 637 -141 605 -109 b 675 0 605 -32 637 0 l 921 0 b 1023 28 958 0 991 9 l 1233 149 l 1371 229 l 1371 265 z "},"ę":{"ha":1417,"x_min":0,"x_max":0,"o":"m 377 658 b 47 329 195 658 47 510 b 377 -1 47 147 195 -1 l 564 -1 b 500 -129 525 -30 500 -77 b 660 -289 500 -217 572 -289 l 920 -289 l 920 -141 l 677 -141 b 606 -71 638 -141 606 -110 b 677 -1 606 -32 638 -1 l 922 -1 b 1025 27 960 -1 992 8 l 1234 148 l 1373 228 l 1373 265 l 1218 175 b 1116 148 1186 157 1153 148 l 377 148 b 197 313 283 148 205 221 l 947 313 b 1050 340 985 313 1017 321 l 1260 461 l 1343 509 l 1373 527 l 1373 658 z m 1143 431 l 1041 372 b 939 345 1009 353 976 345 l 197 345 b 377 509 205 436 283 509 l 1279 509 z "},"Ě":{"ha":1433,"x_min":0,"x_max":0,"o":"m 799 1064 l 1098 1252 l 857 1252 l 709 1135 l 560 1252 l 320 1252 l 618 1064 z m 1223 180 l 1217 176 b 1114 149 1184 157 1152 149 l 532 149 b 334 213 458 149 390 173 b 311 264 318 225 310 243 b 340 312 312 284 322 302 l 341 312 l 465 384 b 568 412 498 403 530 412 l 1371 412 l 1371 560 l 762 560 b 659 533 724 560 692 552 l 449 412 l 252 298 b 207 395 232 327 217 360 b 194 486 199 424 194 455 b 223 621 194 534 205 580 b 532 824 275 740 395 824 l 1371 824 l 1371 972 l 532 972 b 46 486 265 972 46 753 b 54 400 46 457 48 428 b 532 0 94 173 294 0 l 921 0 b 1023 28 958 0 991 9 l 1233 149 l 1371 229 l 1371 265 z "},"ě":{"ha":1417,"x_min":0,"x_max":0,"o":"m 377 659 b 47 330 195 659 47 511 b 377 1 47 149 195 1 l 922 1 b 1025 28 960 1 992 9 l 1234 149 l 1373 229 l 1373 266 l 1218 177 b 1116 149 1186 158 1153 149 l 377 149 b 197 314 283 149 205 222 l 947 314 b 1050 342 985 314 1017 323 l 1260 463 l 1343 511 l 1373 528 l 1373 659 z m 1143 432 l 1041 373 b 939 346 1009 355 976 346 l 197 346 b 377 511 205 438 283 511 l 1279 511 z m 800 723 l 1099 911 l 858 911 l 710 794 l 562 911 l 321 911 l 620 723 z "},"Ğ":{"ha":1453,"x_min":0,"x_max":0,"o":"m 650 1042 l 767 1042 b 944 1220 865 1042 944 1122 l 944 1273 l 821 1273 l 821 1220 b 755 1153 821 1183 792 1153 l 662 1153 b 596 1220 626 1153 596 1183 l 596 1273 l 473 1273 l 473 1220 b 650 1042 473 1122 553 1042 z m 1371 560 l 830 560 b 727 533 792 560 760 552 l 518 412 l 407 348 l 407 311 l 534 384 b 636 412 566 403 599 412 l 1223 412 l 1223 179 l 1217 176 b 1114 149 1184 157 1152 149 l 532 149 b 207 395 378 149 247 253 b 194 486 199 424 194 455 b 223 621 194 534 205 580 b 532 824 275 740 395 824 l 1371 824 l 1371 972 l 532 972 b 46 486 265 972 46 753 b 54 400 46 457 48 428 b 532 0 94 173 294 0 l 921 0 b 1023 27 958 0 991 9 l 1223 143 l 1223 0 l 1371 0 l 1371 228 l 1371 265 z "},"ğ":{"ha":1456,"x_min":0,"x_max":0,"o":"m 1167 658 l 377 658 b 47 329 195 658 47 510 b 377 -1 47 147 195 -1 l 657 -1 b 759 27 695 -1 727 8 l 969 148 l 1224 295 l 1224 -99 l 1156 -138 b 1053 -166 1123 -157 1091 -166 l 85 -166 l 85 -314 l 860 -314 b 962 -287 897 -314 930 -306 l 1172 -166 l 1224 -136 l 1373 -50 l 1373 658 l 1167 658 z m 1224 450 b 1121 273 1224 375 1187 310 l 953 175 b 851 148 921 157 888 148 l 377 148 b 196 329 277 148 196 230 b 377 509 196 428 277 509 l 1224 509 z m 598 700 l 822 700 b 999 878 920 700 999 780 l 999 931 l 877 931 l 877 878 b 810 812 877 841 846 812 l 610 812 b 544 878 574 812 544 841 l 544 931 l 421 931 l 421 878 b 598 700 421 780 500 700 z "},"Ī":{"ha":338,"x_min":0,"x_max":0,"o":"m 243 0 l 243 972 l 94 972 l 94 0 z m 446 1083 l 446 1232 l -110 1232 l -110 1083 z "},"ī":{"ha":313,"x_min":0,"x_max":0,"o":"m 81 1 l 230 1 l 230 659 l 81 659 z m 434 743 l 434 892 l -122 892 l -122 743 z "},"İ":{"ha":339,"x_min":0,"x_max":0,"o":"m 243 0 l 243 972 l 94 972 l 94 0 z m 243 1083 l 243 1232 l 94 1232 l 94 1083 z "},"ı":{"ha":311,"x_min":0,"x_max":0,"o":"m 81 659 l 81 1 l 229 1 l 229 659 z "},"Ł":{"ha":1494,"x_min":0,"x_max":0,"o":"m 296 149 l 296 403 l 609 481 l 573 625 l 296 556 l 296 972 l 147 972 l 147 519 l 33 491 l 69 347 l 147 366 l 147 0 l 1062 0 b 1164 28 1099 0 1132 9 l 1374 149 l 1485 212 l 1485 249 l 1358 176 b 1256 149 1326 157 1293 149 z "},"ł":{"ha":546,"x_min":0,"x_max":0,"o":"m 532 618 l 433 728 l 350 654 l 350 973 l 201 973 l 201 520 l 19 356 l 119 245 l 201 320 l 201 1 l 350 1 l 350 454 z "},"Ń":{"ha":1503,"x_min":0,"x_max":0,"o":"m 997 1252 l 756 1252 l 608 1135 l 518 1064 l 698 1064 z m 1091 972 l 810 972 b 708 945 773 972 740 964 l 498 824 l 243 676 l 243 972 l 94 972 l 94 0 l 243 0 l 243 521 b 346 699 243 597 280 661 l 514 796 b 617 824 547 815 579 824 l 1091 824 b 1271 643 1190 824 1271 742 l 1271 0 l 1420 0 l 1420 643 b 1091 972 1420 824 1272 972 z "},"ń":{"ha":1471,"x_min":0,"x_max":0,"o":"m 983 911 l 742 911 l 594 794 l 504 723 l 684 723 z m 1077 659 l 797 659 b 694 632 759 659 727 651 l 484 511 l 229 364 l 229 659 l 81 659 l 81 1 l 229 1 l 229 208 b 332 386 229 284 267 348 l 500 483 b 603 511 533 502 565 511 l 1077 511 b 1258 330 1176 511 1258 429 l 1258 1 l 1406 1 l 1406 330 b 1077 659 1406 511 1258 659 z "},"Ň":{"ha":1503,"x_min":0,"x_max":0,"o":"m 847 1064 l 1146 1252 l 905 1252 l 757 1135 l 609 1252 l 368 1252 l 667 1064 z m 1091 972 l 810 972 b 708 945 773 972 740 964 l 498 824 l 243 676 l 243 972 l 94 972 l 94 0 l 243 0 l 243 521 b 346 699 243 597 280 661 l 514 796 b 617 824 547 815 579 824 l 1091 824 b 1271 643 1190 824 1271 742 l 1271 0 l 1420 0 l 1420 643 b 1091 972 1420 824 1272 972 z "},"ň":{"ha":1471,"x_min":0,"x_max":0,"o":"m 1077 659 l 797 659 b 694 632 759 659 727 651 l 484 511 l 229 364 l 229 659 l 81 659 l 81 1 l 229 1 l 229 208 b 332 386 229 284 267 348 l 500 483 b 603 511 533 502 565 511 l 1077 511 b 1257 330 1176 511 1257 429 l 1257 1 l 1406 1 l 1406 330 b 1077 659 1406 511 1258 659 z m 834 723 l 1132 911 l 892 911 l 743 794 l 595 911 l 354 911 l 653 723 z "},"Ō":{"ha":1542,"x_min":0,"x_max":0,"o":"m 532 972 b 46 486 265 972 46 753 b 54 400 46 457 48 428 b 532 0 94 173 294 0 l 1009 0 b 1488 400 1247 0 1447 173 b 1496 486 1493 428 1496 457 b 1010 972 1496 753 1277 972 z m 493 1232 l 493 1083 l 1049 1083 l 1049 1232 z m 532 149 b 207 395 378 149 247 254 b 194 486 199 424 194 455 b 223 621 194 534 205 580 b 532 824 275 740 395 824 l 1009 824 b 1318 621 1147 824 1266 740 b 1347 486 1337 580 1347 534 b 1334 395 1347 455 1343 424 b 1009 149 1294 254 1163 149 z "},"ō":{"ha":1421,"x_min":0,"x_max":0,"o":"m 988 743 l 988 892 l 432 892 l 432 743 z m 1043 659 l 377 659 b 47 330 195 659 47 511 b 377 1 47 149 195 1 l 1043 1 b 1373 330 1225 1 1373 149 b 1043 659 1373 511 1225 659 z m 1043 149 l 377 149 b 196 330 277 149 196 231 b 377 511 196 429 277 511 l 1043 511 b 1224 330 1143 511 1224 429 b 1043 149 1224 231 1143 149 z "},"Ő":{"ha":1542,"x_min":0,"x_max":0,"o":"m 532 972 b 46 486 265 972 46 753 b 54 400 46 457 48 428 b 532 0 94 173 294 0 l 1010 0 b 1488 400 1248 0 1447 173 b 1496 486 1493 428 1496 457 b 1010 972 1496 753 1277 972 z m 465 1135 l 375 1064 l 555 1064 l 854 1252 l 613 1252 z m 778 1135 l 687 1064 l 868 1064 l 1167 1252 l 926 1252 z m 532 149 b 207 395 378 149 247 254 b 194 486 199 424 194 455 b 223 621 194 534 205 580 b 532 824 275 740 395 824 l 1009 824 b 1318 621 1147 824 1266 740 b 1347 486 1337 580 1347 534 b 1334 395 1347 455 1343 424 b 1009 149 1294 254 1163 149 z "},"ő":{"ha":1421,"x_min":0,"x_max":0,"o":"m 793 911 l 552 911 l 404 794 l 314 723 l 494 723 z m 627 723 l 807 723 l 1106 911 l 865 911 l 717 794 z m 1043 659 l 377 659 b 47 330 195 659 47 511 b 377 1 47 149 195 1 l 1043 1 b 1373 330 1225 1 1373 149 b 1043 659 1373 511 1225 659 z m 1043 149 l 377 149 b 196 330 277 149 196 231 b 377 511 196 429 277 511 l 1043 511 b 1224 330 1143 511 1224 429 b 1043 149 1224 231 1143 149 z "},"Œ":{"ha":2733,"x_min":0,"x_max":0,"o":"m 532 972 b 46 486 265 972 46 753 b 54 400 46 457 48 428 b 532 0 94 173 294 0 l 1009 0 b 1421 229 1182 0 1335 92 b 1833 0 1507 92 1660 0 l 2222 0 b 2324 28 2259 0 2292 9 l 2534 149 l 2673 229 l 2673 265 l 2524 180 l 2518 176 b 2415 149 2485 157 2453 149 l 1833 149 b 1635 213 1759 149 1691 173 b 1612 264 1619 225 1611 243 b 1642 312 1613 284 1624 302 l 1642 312 l 1767 384 b 1869 412 1799 403 1831 412 l 2673 412 l 2673 560 l 2063 560 b 1960 533 2025 560 1993 552 l 1751 412 l 1553 298 b 1508 395 1533 327 1518 360 b 1496 486 1500 424 1496 455 l 1496 486 b 1524 621 1496 534 1506 580 b 1833 824 1577 740 1696 824 l 2673 824 l 2673 972 l 1833 972 b 1421 744 1660 972 1507 881 b 1009 972 1335 881 1182 972 z m 771 149 l 532 149 b 207 395 378 149 247 254 b 194 486 199 424 194 455 b 223 621 194 534 205 580 b 532 824 275 740 395 824 l 1009 824 b 1318 621 1147 824 1266 740 b 1347 486 1337 580 1347 534 l 1347 485 b 1334 395 1347 454 1342 424 b 1009 149 1294 253 1163 149 l 771 149 z "},"œ":{"ha":2593,"x_min":0,"x_max":0,"o":"m 1554 659 b 1298 538 1451 659 1359 612 b 1043 659 1238 612 1146 659 l 377 659 b 47 330 195 659 47 511 b 377 1 47 149 195 1 l 1043 1 b 1298 122 1146 1 1238 48 b 1554 1 1359 48 1451 1 l 2099 1 b 2202 28 2137 1 2169 9 l 2411 149 l 2550 229 l 2550 266 l 2395 177 b 2293 149 2363 158 2330 149 l 1554 149 b 1374 314 1460 149 1382 222 l 2124 314 b 2227 342 2162 314 2194 323 l 2436 463 l 2520 511 l 2550 528 l 2550 659 z m 1043 149 l 377 149 b 196 330 277 149 196 231 b 377 511 196 429 277 511 l 1043 511 b 1224 330 1143 511 1224 429 b 1043 149 1224 231 1142 149 z m 2320 432 l 2218 373 b 2115 346 2185 355 2153 346 l 1373 346 b 1554 511 1382 438 1460 511 l 2456 511 z "},"Ŕ":{"ha":1490,"x_min":0,"x_max":0,"o":"m 1420 643 b 1091 972 1420 824 1272 972 l 94 972 l 94 0 l 243 0 l 243 11 b 247 50 243 24 244 38 b 346 189 257 109 292 158 l 514 286 b 617 313 547 305 579 313 l 1140 313 b 1154 314 1145 313 1149 314 l 1154 313 b 1271 182 1219 306 1271 249 l 1271 0 l 1420 0 l 1420 182 b 1329 388 1420 263 1385 336 b 1314 401 1324 392 1319 397 b 1265 432 1299 413 1282 424 b 1228 448 1253 438 1241 444 l 1397 545 l 1407 551 b 1419 617 1413 572 1417 595 b 1420 643 1420 626 1420 634 z m 608 1135 l 518 1064 l 698 1064 l 997 1252 l 756 1252 z m 1091 462 l 810 462 b 708 435 773 462 740 453 l 498 313 l 243 166 l 243 824 l 1091 824 b 1271 643 1190 824 1271 742 b 1269 616 1271 634 1271 625 b 1091 462 1256 530 1181 462 z "},"ŕ":{"ha":1378,"x_min":0,"x_max":0,"o":"m 956 911 l 715 911 l 567 794 l 477 723 l 657 723 z m 1077 659 l 797 659 b 694 632 759 659 727 651 l 484 511 l 229 364 l 229 659 l 81 659 l 81 1 l 229 1 l 229 208 b 332 386 229 284 267 348 l 500 483 b 603 511 533 502 565 511 l 1352 511 l 1352 659 l 1077 659 z "},"Ř":{"ha":1490,"x_min":0,"x_max":0,"o":"m 1420 643 b 1091 972 1420 824 1272 972 l 94 972 l 94 0 l 243 0 l 243 11 b 247 50 243 24 244 38 b 346 189 257 109 292 158 l 514 286 b 617 313 547 305 579 313 l 1140 313 b 1154 314 1145 313 1149 314 l 1154 313 b 1271 182 1219 306 1271 249 l 1271 0 l 1420 0 l 1420 182 b 1329 388 1420 263 1385 336 b 1314 401 1324 392 1319 397 b 1265 432 1299 413 1282 424 b 1228 448 1253 438 1241 444 l 1397 545 l 1407 551 b 1419 617 1413 572 1417 595 b 1420 643 1420 626 1420 634 z m 905 1252 l 757 1135 l 609 1252 l 368 1252 l 667 1064 l 847 1064 l 1146 1252 z m 1091 462 l 810 462 b 708 435 773 462 740 453 l 498 313 l 243 166 l 243 824 l 1091 824 b 1271 643 1190 824 1271 742 b 1269 616 1271 634 1271 625 b 1091 462 1256 530 1181 462 z "},"ř":{"ha":1378,"x_min":0,"x_max":0,"o":"m 1077 659 l 797 659 b 694 632 759 659 727 651 l 484 511 l 229 364 l 229 659 l 81 659 l 81 1 l 229 1 l 229 208 b 332 386 229 284 267 348 l 500 483 b 603 511 533 502 565 511 l 1352 511 l 1352 659 l 1077 659 z m 806 723 l 1105 911 l 864 911 l 716 794 l 568 911 l 327 911 l 626 723 z "},"Ś":{"ha":1440,"x_min":0,"x_max":0,"o":"m 1388 824 l 1388 972 l 549 972 b 77 603 321 972 129 814 b 62 486 67 565 62 526 b 70 400 62 457 65 428 b 84 343 74 381 78 362 b 93 318 87 335 90 326 l 224 394 l 280 427 b 383 454 313 445 345 454 l 1059 454 b 1239 273 1158 454 1239 372 l 1239 179 l 1234 176 b 1131 149 1201 157 1169 149 l 63 149 l 63 0 l 937 0 b 1040 28 975 0 1007 9 l 1239 143 l 1250 149 l 1388 229 l 1388 231 b 1386 307 1388 242 1388 296 b 1334 454 1381 361 1362 411 b 1059 603 1275 543 1173 603 l 577 603 b 474 575 539 603 507 594 l 216 426 b 211 486 213 446 211 466 b 232 603 211 527 219 566 b 240 621 234 609 237 615 b 549 824 292 740 411 824 z m 576 1135 l 486 1064 l 666 1064 l 965 1252 l 724 1252 z "},"ś":{"ha":1435,"x_min":0,"x_max":0,"o":"m 958 911 l 717 911 l 569 794 l 479 723 l 659 723 z m 385 659 b 56 330 204 659 56 511 b 56 314 56 325 56 319 l 1232 314 l 1232 180 l 1227 177 b 1124 149 1194 158 1162 149 l 56 149 l 56 1 l 930 1 b 1033 28 968 1 1000 9 l 1243 149 l 1381 229 l 1381 346 l 205 346 b 385 511 213 438 291 511 l 1381 511 l 1381 659 z "},"Ş":{"ha":1440,"x_min":0,"x_max":0,"o":"m 1388 824 l 1388 972 l 549 972 b 77 603 321 972 129 814 b 63 486 67 565 63 526 b 70 400 63 457 65 428 b 84 343 74 381 78 362 b 93 318 87 335 90 326 l 224 394 l 280 427 b 383 454 313 445 345 454 l 1059 454 b 1239 273 1158 454 1239 372 l 1239 179 l 1234 176 b 1131 149 1201 157 1169 149 l 63 149 l 63 0 l 759 0 b 829 -70 797 0 829 -32 b 759 -141 829 -109 797 -141 l 515 -141 l 515 -288 l 776 -288 b 936 -128 864 -288 936 -216 b 871 0 936 -76 910 -29 l 937 0 b 1040 28 975 0 1007 9 l 1240 143 l 1250 149 l 1388 229 l 1388 231 b 1386 307 1388 242 1388 296 b 1334 454 1381 361 1362 411 b 1059 603 1275 543 1173 603 l 577 603 b 474 575 539 603 507 594 l 216 426 b 211 486 213 446 211 466 b 232 603 211 527 219 566 b 240 621 234 609 237 615 b 549 824 292 740 411 824 z "},"ş":{"ha":1436,"x_min":0,"x_max":0,"o":"m 386 658 b 57 329 205 658 57 510 b 57 313 57 323 57 318 l 1234 313 l 1234 179 l 1228 175 b 1125 148 1195 157 1163 148 l 57 148 l 57 -1 l 753 -1 b 823 -71 792 -1 823 -32 b 753 -141 823 -110 792 -141 l 509 -141 l 509 -289 l 770 -289 b 930 -129 858 -289 930 -217 b 866 -1 930 -77 905 -30 l 932 -1 b 1034 27 969 -1 1002 8 l 1244 148 l 1382 228 l 1382 345 l 206 345 b 386 509 214 436 293 509 l 1382 509 l 1382 658 z "},"Š":{"ha":1440,"x_min":0,"x_max":0,"o":"m 1388 824 l 1388 972 l 549 972 b 77 603 321 972 129 814 b 63 486 67 565 63 526 b 70 400 63 457 65 428 b 84 343 74 381 78 362 b 93 318 87 335 90 326 l 224 394 l 280 427 b 383 454 313 445 345 454 l 1059 454 b 1239 273 1158 454 1239 372 l 1239 179 l 1234 176 b 1131 149 1201 157 1169 149 l 63 149 l 63 0 l 937 0 b 1040 28 975 0 1007 9 l 1239 143 l 1250 149 l 1388 229 l 1388 231 b 1386 307 1388 242 1388 296 b 1334 454 1381 361 1362 411 b 1059 603 1275 543 1173 603 l 577 603 b 474 575 539 603 507 594 l 216 426 b 211 486 213 446 211 466 b 232 603 211 527 219 566 b 240 621 234 609 237 615 b 549 824 292 740 411 824 z m 873 1252 l 725 1135 l 577 1252 l 336 1252 l 635 1064 l 816 1064 l 1114 1252 z "},"š":{"ha":1435,"x_min":0,"x_max":0,"o":"m 385 659 b 56 330 204 659 56 511 b 56 314 56 325 56 319 l 1232 314 l 1232 180 l 1227 177 b 1124 149 1194 158 1162 149 l 56 149 l 56 1 l 930 1 b 1033 28 968 1 1000 9 l 1243 149 l 1381 229 l 1381 346 l 205 346 b 385 511 213 438 291 511 l 1381 511 l 1381 659 z m 809 723 l 1107 911 l 867 911 l 718 794 l 570 911 l 329 911 l 628 723 z "},"Ū":{"ha":1503,"x_min":0,"x_max":0,"o":"m 1259 296 l 1259 0 l 1407 0 l 1407 972 l 1259 972 l 1259 451 b 1156 273 1259 376 1221 311 l 988 176 b 885 149 955 157 923 149 l 411 149 b 231 329 312 149 231 230 l 231 972 l 82 972 l 82 329 b 411 0 82 148 230 0 l 692 0 b 794 28 729 0 762 9 l 1004 149 z m 467 1232 l 467 1083 l 1023 1083 l 1023 1232 z "},"ū":{"ha":1471,"x_min":0,"x_max":0,"o":"m 1005 743 l 1005 892 l 449 892 l 449 743 z m 1241 452 b 1138 274 1241 376 1203 312 l 970 177 b 867 149 937 158 905 149 l 393 149 b 213 330 294 149 213 231 l 213 659 l 64 659 l 64 330 b 393 1 64 149 212 1 l 673 1 b 776 28 711 1 744 9 l 986 149 l 1241 296 l 1241 1 l 1389 1 l 1389 659 l 1241 659 z "},"Ů":{"ha":1503,"x_min":0,"x_max":0,"o":"m 1259 296 l 1259 0 l 1407 0 l 1407 972 l 1259 972 l 1259 451 b 1156 273 1259 376 1221 311 l 988 176 b 885 149 955 157 923 149 l 411 149 b 231 329 312 149 231 230 l 231 972 l 82 972 l 82 329 b 411 0 82 148 230 0 l 692 0 b 794 28 729 0 762 9 l 1004 149 z m 822 1149 b 911 1061 871 1149 911 1109 b 822 972 911 1012 871 972 l 667 972 b 579 1061 619 972 579 1012 b 667 1149 579 1109 619 1149 z m 667 1297 b 534 1256 618 1297 572 1282 b 461 1106 490 1221 461 1166 b 653 914 461 1000 547 914 l 837 914 b 1028 1106 942 914 1028 1000 b 955 1256 1028 1166 999 1221 b 822 1297 917 1282 871 1297 z "},"ů":{"ha":1471,"x_min":0,"x_max":0,"o":"m 635 574 l 819 574 b 1010 765 924 574 1010 660 b 937 915 1010 826 981 880 b 804 957 899 941 853 957 l 649 957 b 516 915 600 957 554 941 b 443 765 472 880 443 826 b 635 574 443 660 529 574 z m 649 809 l 804 809 b 893 720 853 809 893 769 b 804 632 893 672 853 632 l 649 632 b 561 720 601 632 561 672 b 649 809 561 769 601 809 z m 1241 452 b 1138 274 1241 376 1203 312 l 970 177 b 867 149 937 158 905 149 l 393 149 b 213 330 294 149 213 231 l 213 659 l 64 659 l 64 330 b 393 1 64 149 212 1 l 673 1 b 776 28 711 1 743 9 l 986 149 l 1241 296 l 1241 1 l 1389 1 l 1389 659 l 1241 659 z "},"Ű":{"ha":1503,"x_min":0,"x_max":0,"o":"m 1259 296 l 1259 0 l 1407 0 l 1407 972 l 1259 972 l 1259 451 b 1156 273 1259 376 1221 311 l 988 176 b 885 149 955 157 923 149 l 411 149 b 231 329 312 149 231 230 l 231 972 l 82 972 l 82 329 b 411 0 82 148 230 0 l 692 0 b 794 28 729 0 762 9 l 1004 149 z m 439 1135 l 349 1064 l 529 1064 l 828 1252 l 587 1252 z m 752 1135 l 661 1064 l 842 1064 l 1141 1252 l 900 1252 z "},"ű":{"ha":1471,"x_min":0,"x_max":0,"o":"m 643 723 l 824 723 l 1123 911 l 882 911 l 734 794 z m 810 911 l 569 911 l 421 794 l 331 723 l 511 723 z m 1241 452 b 1138 274 1241 376 1203 312 l 970 177 b 867 149 937 158 905 149 l 393 149 b 213 330 294 149 213 231 l 213 659 l 64 659 l 64 330 b 393 1 64 149 212 1 l 673 1 b 776 28 711 1 743 9 l 986 149 l 1241 296 l 1241 1 l 1389 1 l 1389 659 l 1241 659 z "},"Ų":{"ha":1503,"x_min":0,"x_max":0,"o":"m 1259 296 l 1259 32 l 1147 32 b 1051 0 1111 32 1078 20 b 987 -128 1012 -29 987 -76 b 1147 -288 987 -216 1059 -288 l 1408 -288 l 1408 -141 l 1164 -141 b 1093 -70 1125 -141 1093 -109 b 1164 0 1093 -32 1125 0 l 1408 0 l 1408 972 l 1259 972 l 1259 451 b 1156 273 1259 376 1222 311 l 988 176 b 885 149 955 157 923 149 l 411 149 b 231 329 312 149 231 230 l 231 972 l 82 972 l 82 329 b 411 0 82 148 230 0 l 692 0 b 794 28 729 0 762 9 l 1004 149 z "},"ų":{"ha":1472,"x_min":0,"x_max":0,"o":"m 1241 450 b 1138 273 1241 375 1203 310 l 970 175 b 867 148 937 157 905 148 l 393 148 b 213 329 294 148 213 230 l 213 658 l 64 658 l 64 329 b 393 -1 64 147 212 -1 l 673 -1 b 776 27 711 -1 743 8 l 986 148 l 1241 295 l 1241 31 l 1129 31 b 1033 -1 1093 31 1060 19 b 969 -129 994 -30 969 -77 b 1129 -289 969 -217 1041 -289 l 1389 -289 l 1389 -141 l 1146 -141 b 1075 -71 1107 -141 1075 -110 b 1146 -1 1075 -32 1107 -1 l 1389 -1 l 1389 658 l 1241 658 z "},"Ÿ":{"ha":1374,"x_min":0,"x_max":0,"o":"m 24 753 b 60 690 24 726 37 704 l 172 625 l 176 623 l 237 588 l 427 478 l 478 449 b 514 439 489 442 501 439 l 612 439 l 612 0 l 761 0 l 761 439 l 859 439 b 895 449 872 439 884 442 l 946 478 l 974 494 l 1136 588 l 1197 623 l 1201 625 l 1313 690 b 1349 753 1336 704 1349 726 l 1349 972 l 1201 972 b 1201 780 1201 972 1201 780 b 1098 603 1200 705 1163 640 l 1089 598 b 1053 588 1077 591 1066 588 l 320 588 b 284 598 307 588 295 591 l 275 603 b 172 780 210 640 172 705 b 172 781 172 780 172 780 l 172 972 l 24 972 z m 505 1232 l 505 1083 l 654 1083 l 654 1232 z m 719 1232 l 719 1083 l 867 1083 l 867 1232 z "},"Ź":{"ha":1413,"x_min":0,"x_max":0,"o":"m 758 412 l 857 412 b 892 421 870 412 881 415 l 943 451 l 971 467 l 1133 560 l 1194 596 l 1197 598 l 1310 663 b 1346 725 1333 676 1346 699 l 1346 832 l 1151 945 b 1049 972 1119 964 1086 972 l 47 972 l 47 824 l 1198 824 b 1198 752 1198 823 1198 753 b 1095 575 1197 677 1160 613 l 1086 570 b 1050 560 1074 564 1063 560 l 377 560 b 102 412 262 560 161 501 b 49 264 73 369 54 318 b 47 231 48 253 47 242 l 47 229 l 186 149 l 196 143 l 395 28 b 498 0 428 9 460 0 l 1373 0 l 1373 149 l 304 149 b 202 176 267 149 234 157 l 196 180 l 196 231 b 377 412 196 330 277 412 l 758 412 z m 561 1135 l 470 1064 l 651 1064 l 950 1252 l 709 1252 z "},"ź":{"ha":1435,"x_min":0,"x_max":0,"o":"m 958 911 l 717 911 l 569 794 l 479 723 l 659 723 z m 1243 511 l 1033 632 b 930 659 1000 651 968 659 l 56 659 l 56 511 l 1124 511 b 1227 483 1162 511 1194 502 l 1232 480 l 1232 346 l 56 346 b 56 330 56 341 56 335 b 385 1 56 149 204 1 l 1381 1 l 1381 149 l 385 149 b 205 314 291 149 213 222 l 1381 314 l 1381 431 z "},"Ż":{"ha":1413,"x_min":0,"x_max":0,"o":"m 758 412 l 857 412 b 892 421 870 412 881 415 l 943 451 l 971 467 l 1133 560 l 1194 596 l 1198 598 l 1310 663 b 1346 725 1333 676 1346 699 l 1346 832 l 1152 945 b 1049 972 1119 964 1087 972 l 47 972 l 47 824 l 1198 824 b 1198 752 1198 823 1198 753 b 1095 575 1197 677 1160 613 l 1086 570 b 1050 560 1074 564 1063 560 l 377 560 b 102 412 262 560 161 501 b 49 264 73 369 54 318 b 47 231 48 253 47 242 l 47 229 l 186 149 l 196 143 l 395 28 b 498 0 428 9 460 0 l 1373 0 l 1373 149 l 304 149 b 202 176 267 149 234 157 l 196 180 l 196 231 b 377 412 196 330 277 412 l 758 412 z m 636 1232 l 636 1083 l 784 1083 l 784 1232 z "},"ż":{"ha":1435,"x_min":0,"x_max":0,"o":"m 793 743 l 793 892 l 644 892 l 644 743 z m 1243 511 l 1033 632 b 930 659 1000 651 968 659 l 56 659 l 56 511 l 1124 511 b 1227 483 1162 511 1194 502 l 1232 480 l 1232 346 l 56 346 b 56 330 56 341 56 335 b 385 1 56 149 204 1 l 1381 1 l 1381 149 l 385 149 b 205 314 291 149 213 222 l 1381 314 l 1381 431 z "},"Ž":{"ha":1413,"x_min":0,"x_max":0,"o":"m 758 412 l 857 412 b 892 421 870 412 881 415 l 943 451 l 971 467 l 1133 560 l 1194 596 l 1198 598 l 1310 663 b 1346 725 1333 676 1346 699 l 1346 832 l 1151 945 b 1049 972 1119 964 1086 972 l 47 972 l 47 824 l 1197 824 b 1197 752 1197 823 1197 753 b 1095 575 1197 677 1160 613 l 1086 570 b 1050 560 1074 564 1063 560 l 377 560 b 102 412 262 560 161 501 b 49 264 73 369 54 318 b 47 231 48 253 47 242 l 47 229 l 186 149 l 196 143 l 395 28 b 498 0 428 9 460 0 l 1373 0 l 1373 149 l 304 149 b 202 176 267 149 234 157 l 196 180 l 196 231 b 377 412 196 330 277 412 l 758 412 z m 858 1252 l 710 1135 l 562 1252 l 321 1252 l 620 1064 l 800 1064 l 1099 1252 z "},"ž":{"ha":1435,"x_min":0,"x_max":0,"o":"m 809 723 l 1107 911 l 866 911 l 718 794 l 570 911 l 329 911 l 628 723 z m 1243 511 l 1033 632 b 930 659 1000 651 968 659 l 56 659 l 56 511 l 1124 511 b 1227 483 1162 511 1194 502 l 1232 480 l 1232 346 l 56 346 b 56 330 56 341 56 335 b 385 1 56 149 204 1 l 1381 1 l 1381 149 l 385 149 b 205 314 291 149 213 222 l 1381 314 l 1381 431 z "},"ƒ":{"ha":314,"x_min":0,"x_max":0,"o":"m 232 175 l 232 682 l 232 682 l 232 825 l 346 825 b 448 852 308 825 416 833 l 658 973 l 719 1009 l 719 1045 l 642 1001 b 540 973 610 982 577 973 l 232 973 b 412 1138 241 1065 319 1138 l 797 1138 l 797 1287 l 412 1287 b 83 957 231 1287 83 1138 l 83 292 l 82 292 l 82 175 l 84 175 l 84 75 b 72 1 84 49 80 24 b -156 -165 41 -95 -50 -165 l -156 -313 b 225 1 32 -313 190 -177 b 232 75 229 25 232 50 l 232 175 z "},"ˆ":{"ha":638,"x_min":0,"x_max":0,"o":"m 542 1096 l 424 1327 l 213 1327 l 94 1096 l 243 1096 l 318 1243 l 394 1096 z "},"ˇ":{"ha":638,"x_min":0,"x_max":0,"o":"m 394 1327 l 318 1180 l 243 1327 l 94 1327 l 213 1096 l 424 1096 l 542 1327 z "},"˘":{"ha":661,"x_min":0,"x_max":0,"o":"m 217 1327 l 94 1327 l 94 1274 b 272 1096 94 1176 174 1096 l 389 1096 b 566 1274 486 1096 566 1176 l 566 1327 l 443 1327 l 443 1274 b 377 1207 443 1237 413 1207 l 284 1207 b 217 1274 247 1207 217 1237 z "},"˙":{"ha":339,"x_min":0,"x_max":0,"o":"m 94 1137 l 243 1137 l 243 1286 l 94 1286 z "},"˛":{"ha":139,"x_min":0,"x_max":0,"o":"m 373 -198 l 320 -49 l 245 -178 l 184 -142 b 82 35 119 -105 82 -40 b 91 82 82 53 81 65 l 92 83 l 50 107 l 50 -61 b 178 -311 50 -260 28 -224 z "},"˜":{"ha":563,"x_min":0,"x_max":0,"o":"m 269 1181 l 268 1182 b 94 1190 213 1231 148 1231 l 94 1025 b 227 1070 124 1090 182 1111 l 228 1069 l 292 1011 l 294 1010 b 467 1002 349 960 414 961 l 467 1167 b 335 1122 438 1102 380 1081 l 334 1123 z "},"Δ":{"ha":1186,"x_min":0,"x_max":0,"o":"m 482 972 l 234 148 l 10 148 l 10 0 l 1176 0 l 1176 148 l 952 148 l 704 972 z m 803 148 l 383 148 l 593 848 z "},"Π":{"ha":1197,"x_min":0,"x_max":0,"o":"m 94 972 l 94 0 l 243 0 l 243 823 l 954 823 l 954 0 l 1102 0 l 1102 972 z "},"Σ":{"ha":1394,"x_min":0,"x_max":0,"o":"m 1314 823 l 1357 823 l 1357 972 l 355 972 b 252 944 317 972 285 963 l 58 832 b 210 595 58 658 37 695 l 400 486 l 94 309 b 58 246 71 296 58 273 l 58 139 l 252 27 b 355 0 285 8 317 0 l 1357 0 l 1357 148 b 206 148 973 148 590 148 l 206 219 b 309 396 207 294 244 359 l 432 467 l 512 421 l 548 411 b 1185 411 678 411 1055 411 l 1185 560 l 354 560 b 309 575 334 560 325 566 b 206 753 244 613 206 677 l 206 823 l 1314 823 z "},"Ω":{"ha":1449,"x_min":0,"x_max":0,"o":"m 209 0 b 312 27 247 0 279 8 l 632 212 l 632 462 l 390 462 b 210 642 291 462 210 543 b 390 823 210 742 291 823 l 1057 823 b 1238 642 1156 823 1238 742 b 1057 462 1238 543 1156 462 l 816 462 l 816 212 l 1136 27 b 1239 0 1169 8 1201 0 l 1387 0 l 1387 148 l 1045 148 b 964 165 1016 148 990 153 l 964 313 l 1057 313 b 1387 642 1238 313 1387 461 b 1057 972 1387 824 1238 972 l 390 972 b 61 642 209 972 61 824 b 390 313 61 461 209 313 l 483 313 l 483 165 b 403 148 458 153 432 148 l 61 148 l 61 0 z "},"μ":{"ha":1472,"x_min":0,"x_max":0,"o":"m 485 148 l 695 27 b 798 0 728 8 760 0 l 1078 0 b 1408 329 1259 0 1408 148 l 1408 972 l 1259 972 l 1259 329 b 1078 148 1259 230 1177 148 l 604 148 b 501 176 566 148 534 157 l 333 273 b 231 451 268 311 231 375 l 231 972 l 82 972 l 82 -314 l 231 -314 l 231 295 z "},"π":{"ha":1033,"x_min":0,"x_max":0,"o":"m -67 972 l -67 823 l 82 823 l 82 0 l 231 0 l 231 823 l 802 823 l 802 0 l 951 0 l 951 823 l 1100 823 l 1100 972 z "},"–":{"ha":707,"x_min":0,"x_max":0,"o":"m 51 422 l 655 422 l 655 549 l 51 549 z "},"—":{"ha":956,"x_min":0,"x_max":0,"o":"m 51 422 l 903 422 l 903 549 l 51 549 z "},"‘":{"ha":258,"x_min":0,"x_max":0,"o":"m 203 824 l 203 972 l 102 972 l 203 1045 l 203 1084 l 54 976 l 54 824 z "},"’":{"ha":253,"x_min":0,"x_max":0,"o":"m 53 1084 l 53 935 l 153 935 l 53 862 l 53 824 l 201 931 l 201 1084 z "},"‚":{"ha":258,"x_min":0,"x_max":0,"o":"m 54 1 l 155 1 l 54 -72 l 54 -110 l 203 -3 l 203 150 l 54 150 z "},"‛":{"ha":275,"x_min":0,"x_max":0,"o":"m 210 971 l 61 971 l 61 819 l 210 711 l 210 750 l 109 823 l 210 823 z "},"“":{"ha":468,"x_min":0,"x_max":0,"o":"m 414 824 l 414 972 l 313 972 l 414 1045 l 414 1084 l 265 976 l 265 824 z m 203 824 l 203 972 l 102 972 l 203 1045 l 203 1084 l 54 976 l 54 824 z "},"”":{"ha":463,"x_min":0,"x_max":0,"o":"m 53 1084 l 53 935 l 153 935 l 53 862 l 53 824 l 201 931 l 201 1084 z m 264 1084 l 264 935 l 364 935 l 264 862 l 264 824 l 412 931 l 412 1084 z "},"„":{"ha":468,"x_min":0,"x_max":0,"o":"m 54 149 l 54 0 l 155 0 l 54 -73 l 54 -111 l 203 -4 l 203 149 z m 265 149 l 265 0 l 366 0 l 265 -73 l 265 -111 l 414 -4 l 414 149 z "},"†":{"ha":718,"x_min":0,"x_max":0,"o":"m 660 973 l 422 973 l 422 1287 l 295 1287 l 295 973 l 57 973 l 57 846 l 295 846 l 295 -312 l 422 -312 l 422 846 l 660 846 z "},"‡":{"ha":757,"x_min":0,"x_max":0,"o":"m 441 1287 l 315 1287 l 315 973 l 76 973 l 76 846 l 315 846 l 315 487 l 76 487 l 76 360 l 315 360 l 315 -312 l 441 -312 l 441 360 l 680 360 l 680 487 l 441 487 l 441 846 l 680 846 l 680 973 l 441 973 z "},"‰":{"ha":1931,"x_min":0,"x_max":0,"o":"m 277 287 l 273 285 l 161 220 b 125 157 138 206 125 184 l 125 1 l 273 1 b 273 130 273 1 273 130 b 376 307 274 205 310 272 b 1000 650 545 397 832 559 l 1061 686 l 1064 688 l 1177 753 b 1213 815 1200 766 1213 789 l 1213 972 l 1064 972 b 1064 842 1064 972 1064 843 b 962 665 1064 767 1028 701 b 338 322 794 575 504 416 z m 1231 486 b 1467 250 1231 356 1337 250 l 1622 250 b 1858 486 1752 250 1858 356 b 1622 722 1858 616 1752 722 l 1467 722 b 1231 486 1337 722 1231 616 z m 1622 575 b 1711 486 1671 575 1711 535 b 1622 398 1711 438 1671 398 l 1467 398 b 1379 486 1419 398 1379 438 b 1467 575 1379 535 1419 575 z m 866 472 b 630 236 736 472 630 366 b 866 0 630 106 736 0 l 1021 0 b 1257 236 1151 0 1257 106 b 1021 472 1257 366 1151 472 z m 1021 325 b 1109 236 1070 325 1109 285 b 1021 148 1109 188 1070 148 l 866 148 b 778 236 817 148 778 188 b 866 325 778 285 817 325 z m 472 825 b 560 736 520 825 560 785 b 472 648 560 687 520 648 l 317 648 b 228 736 268 648 228 687 b 317 825 228 785 268 825 z m 472 500 b 708 736 601 500 708 606 b 472 972 708 866 601 972 l 317 972 b 81 736 187 972 81 866 b 317 500 81 606 187 500 z "},"‹":{"ha":585,"x_min":0,"x_max":0,"o":"m 65 485 l 370 0 l 516 0 l 259 485 l 516 972 l 370 972 z "},"›":{"ha":585,"x_min":0,"x_max":0,"o":"m 214 972 l 68 972 l 325 485 l 68 0 l 214 0 l 519 485 z "},"⁄":{"ha":568,"x_min":0,"x_max":0,"o":"m 64 0 l 213 0 l 505 972 l 356 972 z "},"€":{"ha":1597,"x_min":0,"x_max":0,"o":"m 1523 972 l 683 972 b 229 658 477 972 299 841 l 78 658 l 78 510 l 198 510 b 197 486 197 502 197 494 b 198 461 197 478 197 469 l 78 461 l 78 313 l 229 313 b 683 0 299 130 477 0 l 1072 0 b 1175 27 1110 0 1142 8 l 1384 148 l 1523 228 l 1523 265 l 1374 179 l 1368 176 b 1266 148 1336 157 1303 148 l 683 148 b 394 313 561 148 453 214 l 917 313 l 917 461 l 347 461 b 346 486 346 469 346 477 b 347 510 346 494 346 502 l 917 510 l 917 658 l 394 658 b 683 823 453 757 561 823 l 1523 823 z "},"™":{"ha":2954,"x_min":0,"x_max":0,"o":"m 1072 989 l 1072 1285 l 924 1285 l 924 626 l 1072 626 l 1072 834 b 1175 1012 1072 910 1110 974 l 1343 1109 b 1446 1137 1376 1128 1408 1137 l 1648 1137 b 1829 956 1747 1137 1829 1055 l 1829 627 l 1978 627 l 1978 834 b 2080 1012 1978 910 2015 974 l 2249 1109 b 2351 1137 2281 1128 2314 1137 l 2554 1137 b 2734 956 2653 1137 2734 1055 l 2734 627 l 2883 627 l 2883 956 b 2554 1285 2883 1137 2735 1285 l 2545 1285 b 2442 1258 2507 1285 2475 1277 l 2233 1137 l 1978 989 l 1976 989 b 1648 1285 1959 1155 1818 1285 l 1640 1285 b 1537 1258 1602 1285 1570 1277 l 1327 1137 z m -219 1258 l -428 1137 l -539 1073 l -539 1036 l -412 1109 b -311 1137 -380 1128 -348 1136 l 71 1137 l 71 626 l 219 626 l 219 1137 l 786 1137 l 786 1285 l -118 1285 b -219 1258 -155 1285 -186 1276 z "},"∂":{"ha":1489,"x_min":0,"x_max":0,"o":"m 241 148 l 450 27 b 553 0 483 8 515 0 l 1125 0 b 1405 280 1279 0 1405 126 b 1402 316 1405 292 1404 304 l 1382 328 l 1213 426 b 1250 441 1225 430 1238 435 b 1314 486 1273 453 1295 468 b 1405 692 1370 537 1405 610 b 1402 732 1405 705 1404 719 l 1399 733 l 1243 823 l 1033 944 b 931 972 1001 963 968 972 l 112 972 l 112 823 l 1125 823 b 1256 692 1197 823 1256 764 b 1138 561 1256 624 1204 568 l 1139 560 b 1125 560 1134 560 1129 560 l 742 560 l 742 559 b 717 560 734 560 725 560 l 359 560 b 79 280 199 560 79 460 b 82 240 79 266 80 253 l 85 238 z m 742 413 b 767 411 750 412 759 411 l 1125 411 b 1256 280 1197 411 1256 352 b 1125 148 1256 208 1197 148 l 359 148 b 228 280 287 148 228 208 b 345 411 228 347 280 404 l 345 412 b 359 411 350 412 355 411 l 742 411 z "},"√":{"ha":981,"x_min":0,"x_max":0,"o":"m 369 248 l 231 486 l 60 486 l 146 337 l 340 0 l 369 0 l 900 920 l 930 972 l 902 972 l 426 148 z "},"∫":{"ha":353,"x_min":0,"x_max":0,"o":"m 103 799 l 103 291 l 102 291 l 102 173 l 103 173 l 103 73 b 92 0 103 48 99 23 b -136 -166 60 -96 -30 -166 l -136 -314 b 244 0 52 -314 209 -178 b 251 73 249 24 251 48 l 251 682 l 252 681 l 252 799 l 250 799 l 250 899 b 262 973 250 925 254 949 b 490 1138 293 1069 384 1138 l 490 1286 b 110 973 302 1286 144 1151 b 102 899 105 949 102 924 l 102 799 z "},"≈":{"ha":829,"x_min":0,"x_max":0,"o":"m 394 730 l 391 731 b 79 740 292 788 175 787 l 79 550 b 317 602 132 625 236 649 l 319 601 l 435 534 l 437 533 b 749 524 536 476 653 476 l 749 714 b 511 662 696 639 592 615 l 509 663 z m 394 437 l 391 439 b 79 448 292 496 175 495 l 79 258 b 317 310 132 333 236 357 l 319 309 l 435 242 l 437 241 b 749 232 536 184 653 184 l 749 422 b 511 369 696 347 592 323 l 509 371 z "},"≠":{"ha":728,"x_min":0,"x_max":0,"o":"m 491 664 l 584 973 l 435 973 l 343 664 l 81 664 l 81 517 l 298 517 l 276 443 l 81 443 l 81 295 l 232 295 l 143 0 l 292 0 l 380 295 l 646 295 l 646 443 l 425 443 l 447 517 l 646 517 l 646 664 z "},"≤":{"ha":808,"x_min":0,"x_max":0,"o":"m 72 526 l 72 488 l 307 352 l 517 231 b 620 204 550 212 582 204 l 726 204 l 726 352 l 426 352 b 323 380 388 352 356 361 l 192 456 l 103 507 l 192 559 l 323 634 b 426 662 356 653 388 662 l 726 662 l 726 811 l 620 811 b 517 783 582 811 550 802 l 307 662 l 72 526 z m 726 148 l 72 148 l 72 0 l 726 0 z "},"≥":{"ha":808,"x_min":0,"x_max":0,"o":"m 500 662 l 291 783 b 188 811 258 802 226 811 l 82 811 l 82 662 l 382 662 b 484 634 419 662 452 653 l 616 559 l 705 507 l 616 456 l 484 380 b 382 352 452 361 419 352 l 82 352 l 82 204 l 188 204 b 291 231 226 204 258 212 l 500 352 l 735 488 l 735 526 z m 82 0 l 735 0 l 735 148 l 82 148 z "},"◊":{"ha":867,"x_min":0,"x_max":0,"o":"m 519 972 l 347 972 l 152 634 l 67 486 l 152 337 l 347 0 l 519 0 l 714 337 l 800 486 l 714 634 l 519 972 z m 628 486 l 433 148 l 238 486 l 433 823 z "},"":{"ha":1515,"x_min":0,"x_max":0,"o":"m 94 972 l 94 0 l 243 0 l 243 824 l 521 824 b 624 796 559 824 591 815 l 1166 483 b 1269 305 1231 445 1269 381 l 1269 0 l 1420 0 l 1420 972 l 1269 972 l 1269 461 l 834 711 l 430 945 b 327 972 397 964 365 972 z "},"":{"ha":1964,"x_min":0,"x_max":0,"o":"m 243 824 l 369 824 b 471 796 406 824 439 815 l 815 597 l 843 582 l 843 582 b 908 468 884 558 908 516 l 908 0 l 1056 0 l 1056 468 b 1121 582 1056 516 1080 557 l 1121 582 l 1148 597 l 1493 796 b 1595 824 1525 815 1558 824 l 1721 824 l 1721 0 l 1869 0 l 1869 972 l 1789 972 b 1721 961 1765 972 1742 969 b 1686 945 1709 957 1698 951 l 1401 780 l 1148 634 l 1053 579 l 1053 579 b 911 579 1008 553 956 553 l 911 579 l 815 634 l 562 780 l 277 945 b 243 961 266 951 255 957 b 175 972 222 969 199 972 l 94 972 l 94 0 l 243 0 z "},"":{"ha":1467,"x_min":0,"x_max":0,"o":"m 65 643 b 395 313 65 462 214 313 l 675 313 b 778 341 713 313 745 322 l 987 462 l 1242 609 l 1242 215 l 1174 176 b 1071 149 1142 157 1109 149 l 103 149 l 103 0 l 878 0 b 980 28 915 0 948 9 l 1190 149 l 1242 179 l 1391 265 l 1391 972 l 1242 972 l 1242 765 b 1140 587 1242 689 1205 624 l 971 490 b 869 462 939 471 906 462 l 395 462 b 214 643 296 462 214 544 l 214 972 l 65 972 l 65 643 z "},"":{"ha":1447,"x_min":0,"x_max":0,"o":"m 470 510 l 260 631 b 157 659 227 650 195 659 l 51 659 l 51 510 l 351 510 b 454 483 389 510 421 501 l 636 377 l 390 377 b 60 48 208 377 60 229 l 60 0 l 209 0 l 209 48 b 390 229 209 147 290 229 l 1056 229 b 1237 48 1156 229 1237 147 l 1237 0 l 1386 0 l 1386 48 b 1056 377 1386 229 1238 377 l 810 377 l 992 483 b 1095 510 1025 501 1057 510 l 1395 510 l 1395 659 l 1289 659 b 1186 631 1251 659 1219 650 l 976 510 l 746 377 l 700 377 z "}}}
